<svg width="30" height="30" viewBox="0 0 30 30" fill="none" xmlns="http://www.w3.org/2000/svg">
    <g clip-path="url(#clip0_103_5)">
        <path d="M21.9995 6.99984H20.8993C20.4212 4.67344 18.3747 3.00281 15.9996 3H13.9995C11.6244 3.00281 9.57784 4.67344 9.09972 6.99984H7.99959C5.24011 7.00313 3.00328 9.24 3 12V21.9998C3.00328 24.7598 5.24011 26.9967 8.00006 27H21.9999C24.7599 26.9967 26.9967 24.7598 27 21.9998V12C26.9967 9.24 24.7599 7.00313 21.9999 6.99984H21.9995ZM13.9995 4.99969H15.9996C17.2661 5.00484 18.3934 5.80547 18.8153 6.99984H11.1833C11.6056 5.80547 12.7325 5.00531 13.999 4.99969H13.9995ZM7.99959 8.99953H21.9995C23.6565 8.99953 24.9994 10.3425 24.9994 11.9995V14.9995H5.00012V11.9995C5.00012 10.3425 6.34306 8.99953 8.00006 8.99953H7.99959ZM21.9995 24.9994H8.00006C6.34306 24.9994 5.00012 23.6564 5.00012 21.9994V16.9992H13.9999V17.9991C13.9999 18.5513 14.4476 18.9989 14.9998 18.9989C15.5519 18.9989 15.9996 18.5513 15.9996 17.9991V16.9992H24.9994V21.9994C24.9994 23.6564 23.6565 24.9994 21.9995 24.9994Z"
              fill="#2067FB"/>
        <g class="svg-shadow" filter="url(#filter0_f_103_5)">
            <path d="M21.9995 6.99984H20.8993C20.4212 4.67344 18.3747 3.00281 15.9996 3H13.9995C11.6244 3.00281 9.57784 4.67344 9.09972 6.99984H7.99959C5.24011 7.00313 3.00328 9.24 3 12V21.9998C3.00328 24.7598 5.24011 26.9967 8.00006 27H21.9999C24.7599 26.9967 26.9967 24.7598 27 21.9998V12C26.9967 9.24 24.7599 7.00313 21.9999 6.99984H21.9995ZM13.9995 4.99969H15.9996C17.2661 5.00484 18.3934 5.80547 18.8153 6.99984H11.1833C11.6056 5.80547 12.7325 5.00531 13.999 4.99969H13.9995ZM7.99959 8.99953H21.9995C23.6565 8.99953 24.9994 10.3425 24.9994 11.9995V14.9995H5.00012V11.9995C5.00012 10.3425 6.34306 8.99953 8.00006 8.99953H7.99959ZM21.9995 24.9994H8.00006C6.34306 24.9994 5.00012 23.6564 5.00012 21.9994V16.9992H13.9999V17.9991C13.9999 18.5513 14.4476 18.9989 14.9998 18.9989C15.5519 18.9989 15.9996 18.5513 15.9996 17.9991V16.9992H24.9994V21.9994C24.9994 23.6564 23.6565 24.9994 21.9995 24.9994Z"
                  fill="#2067FB"/>
        </g>
    </g>
    <defs>
        <style>
            .svg-shadow {
                opacity: 0;
                transition: opacity .3s linear;
            }
            .svg-shadow: hover {
                opacity: 1
            }
        </style>
        <filter id="filter0_f_103_5" x="-2" y="-2" width="34" height="34" filterUnits="userSpaceOnUse"
                color-interpolation-filters="sRGB">
            <feFlood flood-opacity="0" result="BackgroundImageFix"/>
            <feBlend mode="normal" in="SourceGraphic" in2="BackgroundImageFix" result="shape"/>
            <feGaussianBlur stdDeviation="2.5" result="effect1_foregroundBlur_103_5"/>
        </filter>
        <clipPath id="clip0_103_5">
            <rect width="30" height="30" fill="white"/>
        </clipPath>
    </defs>
</svg>
