<?xml version="1.0" encoding="UTF-8"?>
<svg id="a" data-name="Layer 1" xmlns="http://www.w3.org/2000/svg" viewBox="0 0 512 512">
  <path fill="#2067fb"
          d="m321.94,341.27c140.18-.7,190.06-74.94,190.06-138.6,0-35.78-25.32-65.71-58.97-72.94,2.9-8.26,5.42-15.83,7.13-21.57,7.53-25.45,2.65-52.35-13.38-73.79C430.44,12.54,405.46,0,378.22,0h-244.44c-27.24,0-52.25,12.54-68.59,34.39-16.02,21.44-20.89,48.34-13.35,73.77,1.71,5.74,4.2,13.31,7.13,21.57C25.32,136.96,0,166.89,0,202.67c0,63.66,49.9,137.9,190.06,138.6,1.19,6.44,1.94,13.01,1.94,19.69v65.71c0,38.95-32.77,42.5-42.67,42.67h-21.33c-11.8,0-21.33,9.54-21.33,21.33s9.54,21.33,21.33,21.33h256c11.8,0,21.33-9.54,21.33-21.33s-9.54-21.33-21.33-21.33h-21.16c-10.07-.17-42.84-3.71-42.84-42.67v-65.71c0-6.68.75-13.25,1.94-19.69Zm115.39-170.6c17.64,0,32,14.36,32,32,0,43.39-34.33,89.54-128.77,95.36,4.71-6.38,10.11-12.29,16.26-17.51,37.1-31.53,62.57-73.66,79.51-110.06.36,0,.66.21,1.02.21h-.02ZM42.67,202.67c0-17.64,14.36-32,32-32,.36,0,.66-.19,1-.21,16.94,36.39,42.39,78.51,79.51,110.06,6.14,5.23,11.54,11.11,16.26,17.51-94.44-5.82-128.77-51.97-128.77-95.36h0Zm181.61,266.67c6.29-11.54,10.39-25.47,10.39-42.67v-65.71c0-43.75-18.9-84.91-51.86-112.94-37.74-32.09-71.4-88.9-90.05-151.94-3.67-12.44-1.28-25.6,6.63-36.14,8.19-10.99,20.74-17.28,34.39-17.28h244.42c13.65,0,26.2,6.29,34.39,17.26,7.87,10.56,10.28,23.72,6.63,36.14-18.67,63.08-52.33,119.87-90.05,151.96-32.96,28.01-51.86,69.18-51.86,112.94v65.71c0,17.19,4.07,31.13,10.39,42.67h-63.42Zm-15.4-261.06c-5.63-3.88-8-11.05-5.76-17.54l11.07-34.26-29.14-21.33c-6.98-5.12-8.49-14.91-3.37-21.89,2.94-4.01,7.64-6.4,12.61-6.4h35.86l10.9-33.98c2.75-8.26,11.67-12.69,19.93-9.94,4.69,1.56,8.38,5.25,9.94,9.94l10.88,33.98h35.86c8.64,0,15.66,7,15.66,15.66,0,5.01-2.39,9.71-6.42,12.65l-29.14,21.33,11.07,34.26c2.65,8.23-1.88,17.07-10.13,19.73-4.78,1.54-10.01.68-14.06-2.28l-28.65-21.08-28.67,21.06c-5.46,4.07-12.93,4.1-18.43.09h0Z"/>
</svg>