<svg width="30" height="30" viewBox="0 0 30 30" fill="none" xmlns="http://www.w3.org/2000/svg">
<g class="svg-shadow" filter="url(#filter0_f_103_8)">
<path d="M18.0909 18.997C24.6619 18.9642 27 15.4842 27 12.5002C27 10.823 25.8131 9.42 24.2358 9.08109C24.3717 8.69391 24.4898 8.33906 24.57 8.07C24.923 6.87703 24.6942 5.61609 23.9428 4.61109C23.1769 3.58781 22.0059 3 20.7291 3H9.27094C7.99406 3 6.82172 3.58781 6.05578 4.61203C5.30484 5.61703 5.07656 6.87797 5.43 8.07C5.51016 8.33906 5.62688 8.69391 5.76422 9.08109C4.18687 9.42 3 10.823 3 12.5002C3 15.4842 5.33906 18.9642 11.9091 18.997C11.9648 19.2989 12 19.6069 12 19.92V23.0002C12 24.8259 10.4639 24.9923 9.99984 25.0003H9C8.44687 25.0003 8.00016 25.4475 8.00016 26.0002C8.00016 26.5528 8.44734 27 9 27H21C21.5531 27 21.9998 26.5528 21.9998 26.0002C21.9998 25.4475 21.5527 25.0003 21 25.0003H20.0081C19.5361 24.9923 18 24.8264 18 23.0002V19.92C18 19.6069 18.0352 19.2989 18.0909 18.997ZM23.4998 11.0002C24.3267 11.0002 24.9998 11.6733 24.9998 12.5002C24.9998 14.5341 23.3906 16.6973 18.9637 16.9702C19.1845 16.6711 19.4377 16.3941 19.7259 16.1494C21.465 14.6714 22.6589 12.6966 23.453 10.9903C23.4698 10.9903 23.4839 11.0002 23.5008 11.0002H23.4998ZM5.00016 12.5002C5.00016 11.6733 5.67328 11.0002 6.50016 11.0002C6.51703 11.0002 6.53109 10.9913 6.54703 10.9903C7.34109 12.6961 8.53406 14.6705 10.2741 16.1494C10.5619 16.3945 10.815 16.6702 11.0363 16.9702C6.60938 16.6973 5.00016 14.5341 5.00016 12.5002ZM13.5131 25.0003C13.808 24.4594 14.0002 23.8064 14.0002 23.0002V19.92C14.0002 17.8692 13.1142 15.9398 11.5692 14.6259C9.80016 13.1217 8.22234 10.4588 7.34813 7.50375C7.17609 6.92063 7.28812 6.30375 7.65891 5.80969C8.04281 5.29453 8.63109 4.99969 9.27094 4.99969H20.7281C21.368 4.99969 21.9562 5.29453 22.3402 5.80875C22.7091 6.30375 22.822 6.92062 22.6509 7.50281C21.7758 10.4597 20.198 13.1217 18.4298 14.6259C16.8848 15.9389 15.9989 17.8687 15.9989 19.92V23.0002C15.9989 23.8059 16.1897 24.4594 16.4859 25.0003H13.5131ZM12.7913 12.7631C12.5273 12.5812 12.4162 12.2452 12.5212 11.9409L13.0402 10.335L11.6742 9.33516C11.347 9.09516 11.2762 8.63625 11.5162 8.30906C11.6541 8.12109 11.8744 8.00906 12.1073 8.00906H13.7883L14.2992 6.41625C14.4281 6.02906 14.8463 5.82141 15.2334 5.95031C15.4533 6.02344 15.6263 6.19641 15.6994 6.41625L16.2094 8.00906H17.8903C18.2953 8.00906 18.6244 8.33719 18.6244 8.74312C18.6244 8.97797 18.5123 9.19828 18.3234 9.33609L16.9575 10.3359L17.4764 11.9419C17.6006 12.3277 17.3883 12.742 17.0016 12.8667C16.7775 12.9389 16.5323 12.8986 16.3425 12.7598L14.9995 11.7717L13.6556 12.7589C13.3997 12.9497 13.0495 12.9511 12.7917 12.7631H12.7913Z" fill="#2067FB"/>
</g>
<path d="M18.0909 18.997C24.6619 18.9642 27 15.4842 27 12.5002C27 10.823 25.8131 9.42 24.2358 9.08109C24.3717 8.69391 24.4898 8.33906 24.57 8.07C24.923 6.87703 24.6942 5.61609 23.9428 4.61109C23.1769 3.58781 22.0059 3 20.7291 3H9.27094C7.99406 3 6.82172 3.58781 6.05578 4.61203C5.30484 5.61703 5.07656 6.87797 5.43 8.07C5.51016 8.33906 5.62688 8.69391 5.76422 9.08109C4.18687 9.42 3 10.823 3 12.5002C3 15.4842 5.33906 18.9642 11.9091 18.997C11.9648 19.2989 12 19.6069 12 19.92V23.0002C12 24.8259 10.4639 24.9923 9.99984 25.0003H9C8.44687 25.0003 8.00016 25.4475 8.00016 26.0002C8.00016 26.5528 8.44734 27 9 27H21C21.5531 27 21.9998 26.5528 21.9998 26.0002C21.9998 25.4475 21.5527 25.0003 21 25.0003H20.0081C19.5361 24.9923 18 24.8264 18 23.0002V19.92C18 19.6069 18.0352 19.2989 18.0909 18.997ZM23.4998 11.0002C24.3267 11.0002 24.9998 11.6733 24.9998 12.5002C24.9998 14.5341 23.3906 16.6973 18.9637 16.9702C19.1845 16.6711 19.4377 16.3941 19.7259 16.1494C21.465 14.6714 22.6589 12.6966 23.453 10.9903C23.4698 10.9903 23.4839 11.0002 23.5008 11.0002H23.4998ZM5.00016 12.5002C5.00016 11.6733 5.67328 11.0002 6.50016 11.0002C6.51703 11.0002 6.53109 10.9913 6.54703 10.9903C7.34109 12.6961 8.53406 14.6705 10.2741 16.1494C10.5619 16.3945 10.815 16.6702 11.0363 16.9702C6.60938 16.6973 5.00016 14.5341 5.00016 12.5002ZM13.5131 25.0003C13.808 24.4594 14.0002 23.8064 14.0002 23.0002V19.92C14.0002 17.8692 13.1142 15.9398 11.5692 14.6259C9.80016 13.1217 8.22234 10.4588 7.34813 7.50375C7.17609 6.92063 7.28812 6.30375 7.65891 5.80969C8.04281 5.29453 8.63109 4.99969 9.27094 4.99969H20.7281C21.368 4.99969 21.9562 5.29453 22.3402 5.80875C22.7091 6.30375 22.822 6.92062 22.6509 7.50281C21.7758 10.4597 20.198 13.1217 18.4298 14.6259C16.8848 15.9389 15.9989 17.8687 15.9989 19.92V23.0002C15.9989 23.8059 16.1897 24.4594 16.4859 25.0003H13.5131ZM12.7913 12.7631C12.5273 12.5812 12.4162 12.2452 12.5212 11.9409L13.0402 10.335L11.6742 9.33516C11.347 9.09516 11.2762 8.63625 11.5162 8.30906C11.6541 8.12109 11.8744 8.00906 12.1073 8.00906H13.7883L14.2992 6.41625C14.4281 6.02906 14.8463 5.82141 15.2334 5.95031C15.4533 6.02344 15.6263 6.19641 15.6994 6.41625L16.2094 8.00906H17.8903C18.2953 8.00906 18.6244 8.33719 18.6244 8.74312C18.6244 8.97797 18.5123 9.19828 18.3234 9.33609L16.9575 10.3359L17.4764 11.9419C17.6006 12.3277 17.3883 12.742 17.0016 12.8667C16.7775 12.9389 16.5323 12.8986 16.3425 12.7598L14.9995 11.7717L13.6556 12.7589C13.3997 12.9497 13.0495 12.9511 12.7917 12.7631H12.7913Z" fill="#2067FB"/>
<defs>
<filter id="filter0_f_103_8" x="1" y="1" width="28" height="28" filterUnits="userSpaceOnUse" color-interpolation-filters="sRGB">
<feFlood flood-opacity="0" result="BackgroundImageFix"/>
<feBlend mode="normal" in="SourceGraphic" in2="BackgroundImageFix" result="shape"/>
<feGaussianBlur stdDeviation="1.5" result="effect1_foregroundBlur_103_8"/>
</filter>
</defs>
</svg>
