<?xml version="1.0" encoding="UTF-8"?>
<svg id="a" data-name="Layer 1" xmlns="http://www.w3.org/2000/svg" viewBox="0 0 512 512.58">
  <path fill="#2067fb"
          d="m256,255.87c47.13,0,85.33-38.21,85.33-85.33s-38.21-85.33-85.33-85.33-85.33,38.21-85.33,85.33,38.21,85.33,85.33,85.33Zm0-128c23.56,0,42.67,19.1,42.67,42.67s-19.1,42.67-42.67,42.67-42.67-19.1-42.67-42.67,19.1-42.67,42.67-42.67Zm85.33,341.97l170.67,41.56v-223.89c0-28.21-18.49-53.09-45.5-61.25l-44.8-14.93c3.28-13.31,4.94-26.96,4.97-40.66C426.67,76.41,350.26,0,256,0S85.33,76.41,85.33,170.67c.06,8.66.78,17.3,2.13,25.86-32.75-13.05-69.87,2.91-82.93,35.65C1.53,239.71,0,247.76,0,255.87v208.04l170.3,48.66,171.03-42.73ZM165.48,80.17c50.34-49.63,131.39-49.05,181.01,1.29,49.06,49.77,49.14,129.69.17,179.55l-90.67,88.73-90.52-88.55c-49.98-49.99-49.98-131.03,0-181.01ZM42.67,255.87c-.05-7.15,3.53-13.84,9.51-17.75,6.27-4.11,14.22-4.66,20.99-1.45l30.59,11.05c8.18,16.21,18.89,31.01,31.72,43.86l120.51,117.89,120.68-118.04c11.87-11.85,21.93-25.38,29.87-40.15l47.3,15.81c9.15,2.62,15.46,10.98,15.47,20.5v169.58l-127.98-31.27-170.24,42.67-128.43-36.78v-175.91Z"/>
</svg>