<svg width="30" height="30" viewBox="0 0 30 30" fill="none" xmlns="http://www.w3.org/2000/svg">
<g clip-path="url(#clip0_104_11)">
<g class="svg-shadow" filter="url(#filter0_f_104_11)">
<path d="M15 14.9806C17.2092 14.9806 18.9998 13.1915 18.9998 10.9852C18.9998 8.77888 17.2087 6.98978 15 6.98978C12.7913 6.98978 11.0002 8.77888 11.0002 10.9852C11.0002 13.1915 12.7913 14.9806 15 14.9806ZM15 8.98724C16.1044 8.98724 17.0002 9.88156 17.0002 10.9852C17.0002 12.0888 16.1048 12.9831 15 12.9831C13.8952 12.9831 12.9998 12.0888 12.9998 10.9852C12.9998 9.88156 13.8952 8.98724 15 8.98724ZM18.9998 24.9993L27 26.9452V16.462C27 15.1412 26.1333 13.9762 24.8672 13.5941L22.7672 12.8951C22.9209 12.2719 22.9988 11.6327 23.0002 10.9913C23.0002 6.57774 19.4184 3 15 3C10.5816 3 6.99984 6.57774 6.99984 10.9913C7.00266 11.3967 7.03641 11.8013 7.09969 12.2021C5.56453 11.5911 3.82453 12.3384 3.21234 13.8713C3.07172 14.2239 3 14.6008 3 14.9806V24.7216L10.9828 27L18.9998 24.9993ZM10.7569 6.75379C13.1166 4.42997 16.9158 4.45713 19.2417 6.81419C21.5414 9.14457 21.5452 12.8866 19.2497 15.2212L14.9995 19.3758L10.7564 15.2297C8.41359 12.889 8.41359 9.09447 10.7564 6.75426L10.7569 6.75379ZM5.00016 14.9806C4.99781 14.6458 5.16563 14.3325 5.44594 14.1495C5.73984 13.957 6.1125 13.9313 6.42984 14.0816L7.86375 14.599C8.24719 15.358 8.74922 16.0509 9.35062 16.6526L14.9995 22.1726L20.6564 16.6456C21.2128 16.0907 21.6844 15.4572 22.0566 14.7657L24.2737 15.5059C24.7027 15.6286 24.9984 16.02 24.9989 16.4658V24.406L18.9998 22.9419L11.0198 24.9398L4.99969 23.2176V14.981L5.00016 14.9806Z" fill="#2067FB"/>
</g>
<path d="M15 14.9806C17.2092 14.9806 18.9998 13.1915 18.9998 10.9852C18.9998 8.77888 17.2087 6.98978 15 6.98978C12.7913 6.98978 11.0002 8.77888 11.0002 10.9852C11.0002 13.1915 12.7913 14.9806 15 14.9806ZM15 8.98724C16.1044 8.98724 17.0002 9.88156 17.0002 10.9852C17.0002 12.0888 16.1048 12.9831 15 12.9831C13.8952 12.9831 12.9998 12.0888 12.9998 10.9852C12.9998 9.88156 13.8952 8.98724 15 8.98724ZM18.9998 24.9993L27 26.9452V16.462C27 15.1412 26.1333 13.9762 24.8672 13.5941L22.7672 12.8951C22.9209 12.2719 22.9988 11.6327 23.0002 10.9913C23.0002 6.57774 19.4184 3 15 3C10.5816 3 6.99984 6.57774 6.99984 10.9913C7.00266 11.3967 7.03641 11.8013 7.09969 12.2021C5.56453 11.5911 3.82453 12.3384 3.21234 13.8713C3.07172 14.2239 3 14.6008 3 14.9806V24.7216L10.9828 27L18.9998 24.9993ZM10.7569 6.75379C13.1166 4.42997 16.9158 4.45713 19.2417 6.81419C21.5414 9.14457 21.5452 12.8866 19.2497 15.2212L14.9995 19.3758L10.7564 15.2297C8.41359 12.889 8.41359 9.09447 10.7564 6.75426L10.7569 6.75379ZM5.00016 14.9806C4.99781 14.6458 5.16563 14.3325 5.44594 14.1495C5.73984 13.957 6.1125 13.9313 6.42984 14.0816L7.86375 14.599C8.24719 15.358 8.74922 16.0509 9.35062 16.6526L14.9995 22.1726L20.6564 16.6456C21.2128 16.0907 21.6844 15.4572 22.0566 14.7657L24.2737 15.5059C24.7027 15.6286 24.9984 16.02 24.9989 16.4658V24.406L18.9998 22.9419L11.0198 24.9398L4.99969 23.2176V14.981L5.00016 14.9806Z" fill="#2067FB"/>
</g>
<defs>
<filter id="filter0_f_104_11" x="-1" y="-1" width="32" height="32" filterUnits="userSpaceOnUse" color-interpolation-filters="sRGB">
<feFlood flood-opacity="0" result="BackgroundImageFix"/>
<feBlend mode="normal" in="SourceGraphic" in2="BackgroundImageFix" result="shape"/>
<feGaussianBlur stdDeviation="2" result="effect1_foregroundBlur_104_11"/>
</filter>
<clipPath id="clip0_104_11">
<rect width="30" height="30" fill="white"/>
</clipPath>
</defs>
</svg>
