<?xml version="1.0" encoding="UTF-8"?>
<svg id="a" data-name="Layer 1" xmlns="http://www.w3.org/2000/svg" viewBox="0 0 109.5 52.3">
  <g id="b" data-name="Group-41">
    <path id="c" data-name="Fill-39" d="m74.2,44c.4,0,.6.1.6.6v2.5c0,.5-.1.6-.6.6h-.3v-3.7h.3Zm29.6,2.5c.4,0,.5.1.5.6v1c0,.4-.1.6-.5.6h-.4v-2.1h.4v-.1Zm-32.6-1.9c0-.5.2-.6.6-.6h.3v3.7h-.3c-.4,0-.6-.1-.6-.6v-2.5h0Zm-34.7,7.6h73v-12.1H36.5v12.1Zm7.9-10.2h-1.9v3.1h-1v-3.1h-1.8v7.9h1.8v-3.5h1v3.5h1.9v-7.9Zm15.3,0h-4.4v7.9h4.4v-1.5h-2.5v-1.9h2.3v-1.5h-2.3v-1.6h2.5v-1.4Zm16.8,2.7c0-1.6-.8-2-2.6-2v-.6h-1.8v.6c-1.9,0-2.7.4-2.7,2v2.5c0,1.6.8,2,2.7,2v.8h1.8v-.8c1.8,0,2.6-.4,2.6-2v-2.5Zm14.2-2.7h-4.7v1.5h1.5v6.4h1.8v-6.4h1.4v-1.5Zm15.5,5.1c0-1.6-.7-2-2.5-2h-.3v-3.1h-1.9v7.9h1.9c2,0,2.8-.3,2.8-2v-.8Zm-74.6-13.1v12.5c-3.3,3.5-8.1,5.8-13.3,5.8-10.1-.1-18.3-8.2-18.3-18.3S8.2,15.8,18.3,15.8v13.7c-2.6,0-5.3,1-7.3,3-.5.5-.9,1-1.3,1.5-2.7,4-2.3,9.4,1.3,12.9,2,2,4.6,3,7.3,3s5.2-1,7.2-3h0c2-2,2-5.2,0-7.2s-5.3-2-7.3,0h0v-5.7h13.4Zm-2.3-24.6c1.1,4.8,1.1,7.8.6,11.2-.9,6.1-3.6,10.8-4.8,12.4-.8-1.1-2.1-3.2-2.9-5.3,0,0-1.6-3.9-2-7.6-.4-3.8-.2-7.6,1-11.9,1.1-3.9,3.3-7.3,3.9-8.2.3.6,3.1,4.5,4.2,9.4h0Zm-4.2,22.4c.6-1,1.5-3.3,1.4-6.2-.1-3-1.1-5.2-1.4-5.7-.3.5-1.5,3-1.5,5.9.1,3,.9,4.9,1.5,6h0Zm3.9-14.2c0-1.8-.1-5-1-8.3s-2.7-6.4-2.9-6.8c-.3.4-1.6,2.9-2.9,6.9-.3,1.2-.9,3.8-1,6.3-.1,3,.3,6.1.5,6.9,0-1,0-4.4.6-7.1.6-2.8,1.8-6,2.8-7.6,1,1.7,2.4,5.4,2.8,7.6.5,2.2.7,5,.6,7.1.2-1.2.5-3.2.5-5h0Zm75.9-1.9h4.6v18.2h-3.5v-11.4h-.1l-1.9,11.5h-2.8l-1.8-11.4h-.1v11.4h-3.5V15.7h4.6l2.3,12.8,2.2-12.8Zm-25.1,10.1c.4,0,.7-.3.7-.9v-5.9c0-.6-.3-.9-.7-.9h-.9v7.7h.9Zm-4.4-10.1h5.5c2.5,0,2.8,2,2.8,3.3v5.5c0,1.3-.4,3.3-2.8,3.3h-2v6.2h-3.5V15.7Zm-10.6,0h8.1v18.2h-3.3v-16h-1.6v16h-3.3V15.7h.1Zm-6.9,11.9v3.4c0,.5.3.6.5.6.3,0,.5-.3.5-.6v-4.2c0-.6-.1-1.2-1.4-1.2h-1.4v-2h1.5c1,0,1.4-.2,1.4-1.4v-3.6c0-.3-.2-.6-.5-.6-.2,0-.5.1-.5.6v3h-3.5v-2.6c0-1.3.2-3.3,2.6-3.3h2.9c2.5,0,2.6,2,2.6,3.3v2.9c0,2-1.3,2.5-2.4,2.5v.2c2.4-.1,2.4,1.8,2.4,2.5v3.7c0,1.3-.2,3.3-2.6,3.3h-3c-2.4,0-2.6-2-2.6-3.3v-3.1h3.5v-.1Zm-8.9-.5l-.6-9.1h-.2l-.6,9.1h1.4Zm-3.5-11.4h5.5l1.8,18.2h-3.4l-.3-4.8h-1.7l-.3,4.8h-3.4l1.8-18.2Zm-9,0h6.7v2.3h-3.2v16h-3.5V15.7Zm54.6,0c2.5,0,2.6,2,2.6,3.3v11.7c0,1.3-.2,3.3-2.6,3.3h-2.9c-2.5,0-2.6-2-2.6-3.3v-11.7c0-1.3.1-3.3,2.6-3.3h2.9Zm-1.5,16c.4,0,.8-.3.8-.7h0v-12.4c0-.4-.4-.6-.8-.6s-.7.3-.8.6v12.4h0c.1.4.4.7.8.7h0Z" style="fill: #1a7fc3; fill-rule: evenodd;"/>
  </g>
</svg>