<?xml version="1.0" encoding="UTF-8"?>
<svg id="a" data-name="svg2784" xmlns="http://www.w3.org/2000/svg" viewBox="0 0 600 290.68">
  <g id="b" data-name="layer1">
    <g id="c" data-name="g2984">
      <polygon id="d" data-name="polygon12" points="0 290.64 290.68 290.64 290.68 0 0 0 0 290.64" style="fill: #0055a5;"/>
      <polygon id="e" data-name="polygon14" points="591.31 .05 309.36 .05 309.36 290.68 600 290.68 600 .05 591.31 .05" style="fill: #0055a5;"/>
      <polygon id="f" data-name="polygon16" points="326.78 273.26 582.54 273.26 582.54 17.46 326.78 17.46 326.78 273.26" style="fill: #fff;"/>
      <path id="g" data-name="path20" d="m26.62,159.28v60.6h9.99v-17.59c1.95,1.7,4.1,2.71,6.41,2.71,3.3,0,6.02-1.74,8.15-5.21,2.39-3.87,3.58-9.58,3.58-17.05,0-5.21-.96-9.9-2.82-13.9l-.33-.65-.33-.54-.22-.54-.33-.43-.33-.54-.43-.54-.33-.43-.33-.43-.43-.43-.33-.43-.43-.43-.43-.33-.43-.43-.43-.33-.43-.33-.43-.33-.54-.22-.43-.33-.43-.22-.54-.22-.54-.22-.54-.22-.54-.22-.54-.11-.54-.11-.54-.11-.65-.22h-.54l-.65-.11h-.54l-.65-.11h-11.08Zm9.45,8.57h.98c2.52,0,4.48,1.46,5.86,4.24,1.39,2.78,2.06,7.08,2.06,13.03,0,3.21-.39,5.75-1.3,7.49-.87,1.74-2,2.61-3.26,2.61s-2.22-.82-3.04-2.39c-.82-1.52-1.3-3.71-1.3-6.62v-18.35Z" style="fill: #fff;"/>
      <path id="h" data-name="path26" d="m261.67,156.33l-.82.82s-20.89,21.81-22.46,23.46v-21.37h-9.77v60.73h9.77v-24.93c.26-.3,12.81-13.6,14.25-15.12.09,2.21,1.43,40.05,1.43,40.05h9.99l-2.39-63.63Z" style="fill: #fff;"/>
      <path id="i" data-name="path28" d="m214.02,157.16h0l-.05.09-.09.04-.09.13-.13.13-.17.17-.17.17-.22.22-.22.22-.26.26-.26.31-.31.3-.3.3-.31.35-.35.35-.39.39-.78.83-.82.87-.87.91-.91.96-.96,1-1,1-1,1.04-1,1.09-2.04,2.13-1,1.04-1,1-.96,1-.91,1-.91.91-.83.87-.78.82-.39.39-.35.39-.35.35-.31.35-.3.31-.26.31-.26.26-.26.26-.22.22-.17.17-.17.17-.13.17-.13.09-.09.13v-21.37h-9.82v60.73h9.82v-24.93c.26-.3,12.82-13.6,14.25-15.12.09,2.21,1.44,40.05,1.44,40.05h9.95l-2.39-63.64-.78.83Z" style="fill: #fff;"/>
      <path id="j" data-name="path30" d="m157.2,204.89l-.61-.74-.52-.74-.52-.83-.43-.82-.43-.87-.39-.87-.39-.91-.3-.91-.26-1-.26-.96-.22-1.04-.17-1.04-.13-1.09-.09-1.09-.05-1.13-.05-1.13c0-6.38,1.56-11.47,4.6-15.2,3.35-4.08,8.21-6.12,14.55-6.12h.48v-10.6h-.48c-9.9,0-17.51,3.04-22.67,9.16-4.69,5.52-7.08,13.2-7.08,22.85s2.61,16.98,7.69,22.76c5.39,6.08,12.82,9.21,22.2,9.21h.48v-10.64h-.48c-6.16,0-11.03-2.09-14.46-6.26Z" style="fill: #fff;"/>
      <path id="k" data-name="path34" d="m78.63,157.76c-5.25,0-9.45,2.97-12.49,8.8-2.95,5.73-4.45,13.36-4.45,22.7s1.41,17.44,4.24,23.13c2.87,5.82,7.14,8.8,12.7,8.8s10.19-3.15,13.36-9.23c2.95-5.69,4.45-13.38,4.45-22.81s-1.52-16.9-4.56-22.59l-.33-.54-.33-.54-.22-.54-.43-.43-.22-.43-.43-.43-.33-.43-.33-.43-.33-.43-.43-.43-.33-.33-.43-.33-.33-.33-.43-.33-.33-.33-.43-.33-.43-.22-.43-.22-.43-.22-.43-.22-.43-.22-.43-.22-.43-.11-.54-.22-.43-.11-.54-.11-.43-.11h-.43l-.54-.11-.54-.11h-1.08Zm0,9.78c2.78,0,4.82,1.98,6.08,5.97,1.22,3.6,1.74,8.86,1.74,15.64s-.61,12.01-1.95,16.18l-.22.43-.11.33-.11.33-.11.33-.11.33-.22.33-.11.33-.22.22-.11.33-.22.22-.11.33-.11.22-.22.22-.22.22-.11.22-.22.11-.11.22-.22.22-.22.11-.22.22-.22.11-.22.11-.11.11-.22.11h-.22l-.22.11-.22.11h-.22l-.22.11h-.76c-2.39,0-4.19-2.04-5.54-6.08-1.39-4.22-2.06-9.62-2.06-15.96s.67-11.82,2.06-15.85c1.27-3.86,3.11-5.86,5.55-5.86Z" style="fill: #fff;"/>
      <path id="l" data-name="path36" d="m119.54,204.89l-.26-.35-.31-.39-.57-.74-.48-.83-.48-.82-.43-.87-.39-.87-.35-.91-.35-.91-.26-1-.26-.96-.17-1.04-.17-1.04-.13-1.09-.09-1.09-.09-1.13v-1.13c0-6.38,1.52-11.47,4.6-15.2,3.3-4.08,8.17-6.12,14.51-6.12h.52v-10.6h-.52c-9.86,0-17.51,3.04-22.63,9.16-4.74,5.52-7.08,13.2-7.08,22.85s2.56,16.98,7.69,22.76c5.34,6.08,12.81,9.21,22.2,9.21h.48v-10.64h-.48c-6.22,0-11.08-2.09-14.51-6.26Z" style="fill: #fff;"/>
      <polygon id="m" data-name="polygon38" points="26.71 70.2 26.71 131.22 37.96 131.22 37.96 80.31 51.86 80.31 51.86 131.22 63.07 131.22 63.07 70.2 26.71 70.2" style="fill: #fff;"/>
      <path id="n" data-name="path42" d="m97.53,68.6c-5.95,0-10.73,3-14.12,8.91-3.35,5.78-5,13.42-5,22.8s1.56,17.61,4.78,23.35c3.26,5.87,8.08,8.8,14.33,8.8s11.42-3.06,14.98-9.23c3.35-5.73,5.1-13.49,5.1-22.91s-1.82-17.07-5.21-22.8l-.33-.54-.33-.54-.33-.54-.43-.43-.33-.54-.43-.43-.33-.43-.43-.43-.43-.43-.33-.33-.43-.43-.43-.33-.43-.33-.43-.33-.54-.33-.43-.22-.43-.33-.43-.22-.54-.22-.43-.22-.54-.22-.54-.22-.43-.11-.54-.22-.54-.11-.54-.11-.54-.11-.54-.11h-1.2l-.54-.11h-.65Zm.11,10.32c3.04,0,5.19,1.96,6.62,5.87,1.3,3.56,1.95,8.75,1.95,15.53s-.76,11.88-2.28,15.96c-1.48,4-3.52,5.86-6.3,5.86h-.98l-.22-.11-.22-.11h-.22l-.22-.11-.22-.11-.22-.11-.22-.11-.22-.11-.22-.22-.22-.11-.22-.22-.22-.11-.11-.22-.22-.22-.22-.22-.11-.22-.22-.22-.22-.33-.11-.22-.22-.22-.11-.33-.22-.33-.11-.22-.11-.43-.22-.33-.11-.33-.11-.33-.22-.33c-1.52-4.22-2.28-9.56-2.28-15.86s.76-11.75,2.28-15.75c1.45-3.86,3.47-5.75,6.21-5.75Z" style="fill: #fff;"/>
      <polygon id="o" data-name="polygon44" points="178.79 70.2 178.79 80.31 188.13 80.31 188.13 131.22 199.38 131.22 199.38 80.31 208.85 80.31 208.85 70.2 178.79 70.2" style="fill: #fff;"/>
      <path id="p" data-name="path46" d="m154.16,91.43h-6.12c-2.52,0-4.43-.56-5.61-1.69-.87-.78-1.26-1.87-1.26-3.26v-16.29h-11.25v17.42c0,4,1.61,7.43,4.73,10.12,3.08,2.65,6.91,4,11.29,4h8.21v29.49h11.25v-61.03h-11.25v21.24h0Z" style="fill: #fff;"/>
      <path id="q" data-name="path50" d="m223.5,70.23l-2.06,61.03h11.19s1.04-28.52,1.08-29.86h14.01c.13,1.26,3.26,29.86,3.26,29.86h11.29l-5.21-44.63v-1.63l-.11-.54v-.54l-.11-.43v-.54l-.11-.43-.11-.54-.11-.43-.11-.43-.11-.43-.11-.43-.22-.43-.11-.43-.11-.43-.22-.43-.22-.33-.22-.43-.11-.33-.22-.43-.22-.33-.33-.33-.22-.43-.22-.22-.33-.43-.22-.22-.33-.33-.33-.33-.33-.22-.22-.33-.43-.33c-2.82-2.22-6.65-3.26-11.51-3.26h-16.6Zm10.75,10.11h4.02c2.91,0,4.87.93,6.08,2.71,1,1.48,1.67,4.3,2.06,8.25h-12.49v-1.73l.11-.33v-4.34l.11-.43v-3.15l.11-.22v-.76h0Z" style="fill: #fff;"/>
      <path id="r" data-name="path52" d="m397.41,93.95l.39.91.48.87.48.91.57.96.3.43.35.48.31.48.35.48.39.48.39.48.39.48.43.48.48.52.48.48.48.52.52.52.57.52.56.52.61.52.65.56.65.52.69.56.69.56.74.61.83.57.78.61.87.56.87.61c2.13,1.48,4.56,4.56,2.74,8.86-1.82,4.34-5.21,10.43-3.17,12.82,2.04,2.39,9.25,3.6,15.16,1.26,0,0,1.26,3.74,3.43,6.12,0,0-1.04,2.04-4.43,1,0,0,1.26,3.09-.48,6.39,0,0-3.95-.7-5.69-4.34,0,0-1.56,2.87-4.73,3.86,0,0-2.61-1.34-2.04-6.56,0,0-1.91,4.65-7.82,5.43,0,0-3.39-4.3,1.04-10.08,0,0-3.21,2.82-8.95,1.48,0,0-.96-2.95,4.3-7.04,0,0-5.91-.26-8.17-5.21,0,0,2.47-3.08,8.6-2.39,0,0-5.69-1.26-6.95-8.04,0,0,4.08-2.61,10.6,1.56,0,0-1.13-2.17-3.86-4.34-2.74-2.08-6.04-8.11-4.87-16.98Z" style="fill: #0055a5;"/>
      <path id="s" data-name="path54" d="m421.13,162.37l-.17-.22-.13-.22-.17-.22-.13-.22-.13-.22-.13-.22-.13-.17-.13-.22-.13-.22-.13-.22-.09-.22-.13-.22-.09-.17-.13-.22-.09-.22-.09-.22c1.04,8.25,1.39,13.81,5.82,19.16,0,0,2.74-3.56.96-12.25-.69-.22-1.56-.56-2.39-1.13,0,0,1.04,3.52.39,7.08,0,0-1.61-1.18-2.78-9.47Z" style="fill: #0055a5;"/>
      <path id="t" data-name="path56" d="m413.39,161.5l-.04-.04-.04-.09-.04-.09-.09-.04-.04-.09-.09-.09-.05-.09-.09-.09-.05-.09-.09-.13-.13-.17-.13-.22-.17-.22-.13-.22-.13-.22-.17-.22-.13-.22-.13-.17-.13-.22-.04-.13-.05-.09-.09-.09-.04-.09c-.39,4.78-1.65,17.38,2.61,21.33,0,0,2.87-2.13,3.91-20.5-.61,1.04-1.7,2.13-2.22,2.73,0,0,.69,5.82-1.39,9.95,0,0-2.09-1.61-.83-10.43Z" style="fill: #0055a5;"/>
      <path id="u" data-name="path58" d="m403.36,171.14l.31-.39.3-.48.31-.52.31-.56.26-.57.26-.61.22-.65.26-.65.22-.7.22-.7.17-.7.17-.74.35-1.44.13-.7.17-.7.13-.7.09-.65.13-.65.09-.65.09-.61.09-.56.09-.52.04-.48.05-.48.05-.39.04-.17v-.17l.04-.17v-.26l.05-.09v-.3h0v-.04c.48-.31,1-.7,1.48-1.09.22-.17.39-.31.61-.52,0,.48,0,.96.04,1.44-.52,7.65-1.13,15.55-3.52,19.5-2.35,3.87-6.65,5.87-6.65,5.87-4.04-7.21.82-16.85,4.91-23.58.52-.17,1.04-.39,1.56-.65-1.48,5.16-4.17,11.29-3.04,16.02Z" style="fill: #0055a5;"/>
      <path id="v" data-name="path60" d="m393.33,149.03v.61l.05.13v.26l.04.04v.22l.04.09v.13l.05.05v.13l.05.05v.13l.04.05c.04.09.09.3.17.52-3.39,3.26-5.91,6.47-10.9,13.42-5.04,6.99-12.99,7.25-12.99,7.25.78-5.65,2.3-10.12,6.56-14.9,4.22-4.82,9.69-9.21,13.68-12.12,1.04.48,2.39.78,4.08.57.09,0,.26-.05.39-.05-.52.7-.87,1.39-1.04,2.04-3.04,1.74-11.82,6.21-15.38,13.38,0,0,5.56-1.73,15.16-11.98Z" style="fill: #0055a5;"/>
      <path id="w" data-name="path62" d="m387.03,142.04l.35-.65c.09-.17.22-.35.35-.52-3.3,1.26-14.94,5.65-18.72,7.6-3.74,1.96-9.21,6.39-12.16,15.42,0,0,7.86.7,14.38-4.69,6.47-5.34,14.03-12.86,17.25-15.24-.31-.26-.57-.56-.74-.82,0,0-8.77,7.78-18.07,11.12,0,0,2-3.56,5.65-6.21,4.48-3.18,7.82-4.22,11.73-6Z" style="fill: #0055a5;"/>
      <path id="x" data-name="path64" d="m380.38,136.7l.04-.09.05-.13.05-.13.04-.09.04-.13.05-.13.05-.05v-.05l.04-.05.04-.09c-3.86.82-13.47,1.95-17.76,3.26-4.3,1.3-12.03,4.47-16.64,13.25,0,0,6.78,2.08,19.51-3.91,12.77-5.99,16.77-7.26,19.2-7.91-1.96-.13-3.35-.78-4.04-1.22-5.08,2.26-11.86,4.95-18.63,5.13,0,0,3.34-2.35,6.82-3.82,3.82-1.61,7.99-3.04,11.17-3.87Z" style="fill: #0055a5;"/>
      <path id="y" data-name="path66" d="m380.69,130.35l.22.13.22.09.22.09.26.13.22.04.22.09.22.09.22.05.22.09.26.05.22.05.26.05.13.05h.13l.13.05h.26l.17.05h.13l.13.05c-.87.57-1.7,1.3-2.48,2.26-4.52,1.3-12.16,2.69-24.8,3.61-12.64.96-19.37-1.39-19.37-1.39,4.39-2.69,11.42-5.43,16.16-6.34,4.78-.91,17.25-.78,22.67-1.56.09.09.78.61,1.87,1.26-4.65.43-14.42.87-19.51,3.39,0-.01,9.34,1.24,21.64-2.32Z" style="fill: #0055a5;"/>
      <path id="z" data-name="path68" d="m379.73,123.1l.13-.09.13-.05.13-.09.13-.04.13-.09.13-.05.13-.09.17-.09.13-.05.13-.09.17-.05.17-.09.13-.09.17-.04.17-.09.17-.05c-6.39-1.91-15.16-5.04-28.36-5.91-9.69-.65-16.73-.09-20.33.87,0,0,8.82,6.21,18.94,8.43,10.08,2.17,18.29.78,24.24.82.43-.61.87-1.22,1.56-1.91-6.99.04-18.68-1.74-22.85-3.13,0,0,10.17-2.16,24.46,1.92Z" style="fill: #0055a5;"/>
      <path id="aa" data-name="path70" d="m379.73,115.59v.09l.05.04v.09l.04.09v.13l.04.13.05.13.09.17.04.13.09.22.09.17.09.17.09.22.13.22.13.22.13.22.17.22.13.26.17.22.22.22.22.26.22.22.22.26.26.22.26.22.3.22.31.26.35.17.3.22.39.22.39.17c-8.99-3.91-26.72-6.17-36.19-10.16-12.86-5.3-15.2-11.99-15.2-11.99,11.12-.31,20.11,2.43,27.02,4.56,8.17,2.47,20.5,7.08,24.8,9.03-1.61.05-3.39.48-4.87,1.52-6.04-2.3-8.86-3.3-14.38-4.87-4.3-1.22-7.52-1.44-10.21-1.7,0,0,3.82,2.52,10.08,4.52,6.22,1.98,8.92,2.32,14,3.28Z" style="fill: #0055a5;"/>
      <path id="ab" data-name="path72" d="m379.03,105.77l.05.05.04.09.04.09.05.05.05.09.04.09.04.09.09.09.04.09.04.09.09.13.04.09.13.22.17.17.13.22.13.17.04.13.09.09.04.09.09.09.05.09.09.09.05.09.05.09.04.05.04.09.05.05.05.09c-14.21-2.39-29.84-13.12-34.66-19.81-4.82-6.64-3.43-16.59-3.43-16.59,4.69.96,14.86,9.73,17.46,12.38,2.65,2.61,10.64,10.38,16.16,14.73l1.69,4.95c-4.69-3.78-10.29-7.99-13.81-10.64-2.69-2.04-6.73-4.87-10.69-6.25,0,0,3.65,4.78,6.65,7.12,3.43,2.74,6.9,5.08,9.77,6.65,2.57,1.38,3.87,2.21,9.04,4.68Z" style="fill: #0055a5;"/>
      <path id="ac" data-name="path74" d="m419.08,145.56l.09-.09.09-.09.04-.05.09-.09.09-.09.09-.04.05-.09.09-.05.05-.09.09-.09.04-.05.09-.09.05-.05.09-.09.05-.05.09-.09c.65.87,2.82,3.61,3.91,6.34.82,2.3,1.7,5.47,2.13,7.25.43,1.87,1.7,5.6,2.52,6.9,0,0-3.48.48-6.04-2.56-2.52-2.91-3.35-5.86-3.78-8.9-.31-2.38-.17-5.68.13-7.9Z" style="fill: #0055a5;"/>
      <path id="ad" data-name="path76" d="m413.61,146l.09.09.04.09.09.05.04.09.04.09.09.04.04.04.04.09.09.04.04.04.04.05.05.09.09.04.04.05h.04l.05.05.05.04.04.04.04.05h.05v.05h.05l.04.04h.04v.04h.05v.04h.05v.05l.52.22.48-.13c.43-.17.83-.35,1.17-.48.52,1.35.69,2.04.87,3.26.13,1.56.48,4.04-.13,6.08-.74,2.48-2.22,3.95-3.04,4.95,0,0-2.26-2.52-2.91-4.56-.69-2.13-.91-4.65-.09-7.21.49-1.39,1.22-2.65,1.83-3.39Z" style="fill: #0055a5;"/>
      <path id="ae" data-name="path78" d="m405.84,146.21l.22-.05h.22l.17-.05.22-.04.39-.09.39-.09.39-.13.39-.09.35-.13.35-.13.3-.17.31-.13.35-.17.26-.13.3-.17.26-.17.26-.17.26-.17c.31.78.74,1.91.43,3.43-.39,1.56-1.44,3.35-3,4.56-2.35,1.87-5.43,3.6-8.9,3.04,0,0-.77-2.56,6.09-8.95Z" style="fill: #0055a5;"/>
      <path id="af" data-name="path80" d="m403.23,141.91l.05.22v.22l.05.17.04.22.04.17.05.17.05.22.04.17.09.17.05.13.04.17.09.17.05.13.09.13.04.13.05.13.09.13.04.13.05.09.09.09.04.13.05.09.05.05.04.09.04.09.05.04.05.05.04.05.04.05v.05h.05v.05c-.82.96-3.74,5.95-9.82,5.13,0,0-1.65-3.43,2.39-6.13,2.73-1.88,4.08-2.23,5.95-2.88Z" style="fill: #0055a5;"/>
      <path id="ag" data-name="path82" d="m403.75,137.61l-.3.09-.3.09-.35.05-.35.05-.35.05-.35.05h-.39l-.39.04h-.39l-.43-.04h-.39l-.22-.05h-.22l-.26-.05h-.22l-.22-.05-.22-.05-.22-.05-.26-.05-.22-.05-.26-.09-.7-.13-.22-.7c-3.08,2.56-6.82,3-8.08,5.3,0,0,1.56,2.87,5.6,2.35,4.04-.48,7.08-2.35,9.25-5.08.03-.39.2-1.13.42-1.69Z" style="fill: #0055a5;"/>
      <path id="ah" data-name="path84" d="m396.76,134.05l.09-.17.13-.17.09-.17.09-.22.13-.17.09-.22.13-.22.09-.22.13-.22.13-.26.09-.13.09-.09.05-.13.09-.13.09-.13.09-.09.09-.13.09-.13.13-.13.09-.13.13-.13.09-.09c-2.69-.48-5.08-.57-8.21.09-3.74.7-7.56,1.56-9.47,7.21,0,0,2.39,2.08,6.78,1.17,3.65-.74,6.86-2.35,8.73-4.99Z" style="fill: #0055a5;"/>
      <path id="ai" data-name="path86" d="m395.15,127.88l-.17-.17-.17-.13-.17-.17-.17-.17-.13-.17-.17-.22-.17-.17-.13-.17-.17-.22-.13-.22-.17-.22-.13-.22-.13-.26-.13-.22-.13-.26-.13-.26-.3-.7c-3.21-1.3-6.6-2-9.9-.78-3.3,1.26-4.17,2.69-5,3.91,0,0,3.65,3.08,7.86,3.21,4.21.09,8.08-1.12,9.77-2.38Z" style="fill: #0055a5;"/>
      <path id="aj" data-name="path88" d="m396.15,121.23l.09-.05.13-.04.09-.05h.13l.09-.04.13-.05.09-.05.13-.05h.13l.13-.05.13-.05h.09l.13-.05.13-.05h.13l.13-.05c-1.39-1.26-2.82-3.17-3.52-6.08-1.48.35-5.04.35-6.56-.22-1.56-.61-4.6-.65-7,.96,0,0,.78,4.13,6.17,5.56,5.09,1.36,6.95,1.01,9.04.32Z" style="fill: #0055a5;"/>
      <path id="ak" data-name="path90" d="m394.19,113.11l.7-.48c.09-.04,1.3-.78,3.39-.91-1.74-1.34-5.91-4.82-8.82-6.43-3.17-1.78-8.47-4.21-11.21-4.56,0,0,2.56,6.64,5.47,9.34,3.09,2.78,5.21,3.83,10.47,3.04Z" style="fill: #0055a5;"/>
      <path id="al" data-name="path92" d="m399.62,110.03l-.22-.31-.22-.35-.26-.35-.22-.35-.17-.39-.22-.39-.22-.39-.17-.43-.17-.43-.22-.43-.17-.43-.13-.48-.17-.48-.17-.48-.13-.52-.13-.48c-.65-2.26-2.04-7.73-2.87-9.21-.82-1.44-3.82-6.38-9.64-7.95,0,0-1.52,6.47,1.39,11.68,2.51,4.44,7.68,9.13,14.11,12.17Z" style="fill: #0055a5;"/>
      <path id="am" data-name="path94" d="m431.99,140.35l.17.13.13.13.13.13.13.09.13.13.13.09.13.13.13.09.13.09.17.13.09.05.09.05.09.05.09.09.09.05.09.05.13.04.09.09.09.05.13.05.13.09.09.05s1.87,3.56-.39,7.82c-2.26,4.3-4.13,8.69-5.04,11.12,0,0-1.22-.17-2.56-6.9-.91-4.52-2.04-5.69-3.26-7.21,1.3.65,2.35.82,2.48.82l.87.22.43-.87c.78-1.52,1-3,1-4.22,0-.43,0-.82-.05-1.17,2.09.09,3.21-1,3.65-1.52.04-.09.09-.09.09-.13l.22.24Z" style="fill: #0055a5;"/>
      <path id="an" data-name="path96" d="m382.47,88.91v2.05l.13,1.61c-3.48-4.39-7.6-9.68-11.51-14.6-2.69-3.34-4.95-5.34-7.52-7,2.17,6.21,5.99,11.17,8.69,13.6,2.69,2.47,6.6,6.64,10.43,9.21l.35,1.22c.3,1.17.74,2.35,1.34,3.48.96,1.56,2.09,3.09,3.48,4.6-1.09-.56-2.39-1.17-3.65-1.69l-1.22-.52c-10.47-5.51-20.9-17.07-25.06-25.06-4.21-8.04-2.48-17.33-1.39-22.33,4.78,4.04,11.69,11.99,14.64,16.29,3.69,5.3,8.39,12.86,11.29,18.98v.16h0Z" style="fill: #0055a5;"/>
      <path id="ao" data-name="path98" d="m529.59,123.1l-.13-.09-.09-.05-.13-.09-.13-.04-.13-.09-.17-.05-.13-.09-.13-.09-.13-.05-.17-.09-.13-.05-.17-.09-.17-.09-.17-.04-.17-.09-.17-.05c6.43-1.91,15.2-5.04,28.45-5.91,9.68-.65,16.63-.09,20.28.87,0,0-8.86,6.21-18.94,8.43-10.08,2.17-18.29.78-24.28.82-.39-.61-.82-1.22-1.52-1.91,6.99.04,18.63-1.74,22.85-3.13,0,0-10.17-2.16-24.5,1.92Z" style="fill: #0055a5;"/>
      <path id="ap" data-name="path100" d="m529.63,115.59v.09l-.05.04v.09l-.04.09-.05.13v.13l-.09.13-.04.17-.05.13-.09.22-.09.17-.09.17-.13.22-.09.22-.13.22-.13.22-.17.22-.17.26-.17.22-.17.22-.22.26-.22.22-.26.26-.26.22-.26.22-.26.22-.35.26-.3.17-.35.22-.35.22-.39.17c8.99-3.91,26.67-6.17,36.23-10.16,12.82-5.3,15.16-11.99,15.16-11.99-11.12-.31-20.16,2.43-27.06,4.56-8.12,2.47-20.46,7.08-24.8,9.03,1.65.05,3.43.48,4.91,1.52,6.04-2.3,8.86-3.3,14.33-4.87,4.34-1.22,7.51-1.44,10.21-1.7,0,0-3.78,2.52-10.04,4.52-6.26,1.98-8.96,2.32-13.99,3.28Z" style="fill: #0055a5;"/>
      <path id="aq" data-name="path102" d="m530.33,105.77v.05l-.05.09-.05.09-.04.05-.09.09-.04.09-.05.09-.04.09-.09.09-.05.09-.13.22-.13.22-.17.17-.13.22-.13.17-.04.13-.09.09-.04.09-.09.09-.05.09-.09.09-.04.09-.05.09-.04.05-.05.09-.09.05-.04.09c14.2-2.39,29.84-13.12,34.66-19.81,4.87-6.64,3.48-16.59,3.48-16.59-4.69.96-14.86,9.73-17.5,12.38-2.61,2.61-10.6,10.38-16.11,14.73l-1.7,4.95c4.69-3.78,10.3-7.99,13.77-10.64,2.73-2.04,6.69-4.87,10.73-6.25,0,0-3.69,4.78-6.65,7.12-3.43,2.74-6.95,5.08-9.82,6.65-2.52,1.37-3.87,2.2-8.99,4.68Z" style="fill: #0055a5;"/>
      <path id="ar" data-name="path104" d="m526.89,88.91v2.05l-.13,1.61c3.43-4.39,7.56-9.68,11.47-14.6,2.73-3.34,4.99-5.34,7.51-7-2.13,6.21-5.95,11.17-8.65,13.6-2.69,2.47-6.6,6.64-10.43,9.21l-.35,1.22c-.35,1.17-.78,2.35-1.39,3.48-.91,1.56-2.09,3.09-3.43,4.6,1.09-.56,2.35-1.17,3.65-1.69l1.17-.52c10.47-5.51,20.9-17.07,25.06-25.06,4.3-8.04,2.52-17.33,1.39-22.33-4.78,4.04-11.64,11.99-14.6,16.29-3.69,5.3-8.38,12.86-11.29,18.98v.16h0Z" style="fill: #0055a5;"/>
      <path id="as" data-name="path106" d="m395.89,152.25l-.43.43-.43.43-.48.48-.48.52-.52.52-.52.56-.52.61-.52.61-.56.65-.56.65-.52.7-.56.7-.52.74-.56.78-.52.78-.52.78-.48.83-.48.82-.48.83-.43.87-.43.87-.35.91-.35.87-.35.96-.26.91-.26.91-.17.96-.17.96-.09.96-.04,1-.04.96.09,1s8.43-2.65,11.94-8.86c3.48-6.17,5.61-10.12,7.08-11.51-.96.13-1.91.13-2.78,0l-.78-.13c-2.17,3.91-6.43,10.34-10.25,12.56,0,0-.96-5.21,10.3-15.72.17-.43.39-.91.7-1.44-1.04.39-2.17.56-3.52.52" style="fill: #0055a5;"/>
      <path id="at" data-name="path108" d="m511.95,93.95l-.43.91-.48.87-.48.91-.56.96-.3.43-.31.48-.35.48-.35.48-.35.48-.39.48-.43.48-.43.48-.43.52-.48.48-.48.52-.52.52-.57.52-.56.52-.61.52-.65.56-.65.52-.69.56-.69.56-.74.61-.78.57-.82.61-.87.56-.87.61c-2.17,1.48-4.56,4.56-2.74,8.86,1.82,4.34,5.21,10.43,3.17,12.82-2.04,2.39-9.3,3.6-15.2,1.26,0,0-1.26,3.74-3.39,6.12,0,0,1.04,2.04,4.43,1,0,0-1.26,3.09.48,6.39,0,0,3.95-.7,5.65-4.34,0,0,1.56,2.87,4.73,3.86,0,0,2.65-1.34,2.04-6.56,0,0,1.91,4.65,7.86,5.43,0,0,3.39-4.3-1.04-10.08,0,0,3.17,2.82,8.95,1.48,0,0,.91-2.95-4.3-7.04,0,0,5.91-.26,8.17-5.21,0,0-2.52-3.08-8.64-2.39,0,0,5.69-1.26,6.95-8.04,0,0-4.08-2.61-10.56,1.56,0,0,1.13-2.17,3.87-4.34,2.69-2.08,5.99-8.11,4.86-16.98Z" style="fill: #0055a5;"/>
      <path id="au" data-name="path110" d="m488.24,162.37l.17-.22.13-.22.13-.22.17-.22.13-.22.13-.22.13-.17.13-.22.13-.22.09-.22.13-.22.09-.22.13-.17.09-.22.09-.22.09-.22c-1,8.25-1.35,13.81-5.82,19.16,0,0-2.69-3.56-.96-12.25.78-.22,1.56-.56,2.39-1.13,0,0-1,3.52-.39,7.08,0,0,1.61-1.18,2.83-9.47Z" style="fill: #0055a5;"/>
      <path id="av" data-name="path112" d="m495.93,161.5l.09-.04.05-.09.04-.09.05-.04.09-.09.04-.09.09-.09.05-.09.09-.09.04-.13.17-.17.13-.22.13-.22.17-.22.13-.22.13-.22.13-.22.13-.17.13-.22.09-.13.04-.09.05-.09.05-.09c.39,4.78,1.65,17.38-2.56,21.33,0,0-2.91-2.13-3.91-20.5.61,1.04,1.7,2.13,2.17,2.73,0,0-.69,5.82,1.39,9.95,0,0,2.13-1.61.83-10.43Z" style="fill: #0055a5;"/>
      <path id="aw" data-name="path114" d="m506,171.14l-.35-.39-.3-.48-.31-.52-.26-.56-.3-.57-.22-.61-.26-.65-.22-.65-.22-.7-.22-.7-.17-.7-.22-.74-.3-1.44-.17-.7-.13-.7-.13-.7-.09-.65-.13-.65-.09-.65-.09-.61-.09-.56-.09-.52-.05-.48-.04-.48-.05-.39-.04-.17v-.17l-.05-.17v-.26l-.04-.09v-.3h0v-.04c-.52-.31-1-.7-1.48-1.09-.22-.17-.43-.31-.61-.52,0,.48,0,.96-.09,1.44.56,7.65,1.17,15.55,3.56,19.5,2.35,3.87,6.65,5.87,6.65,5.87,4.04-7.21-.82-16.85-4.95-23.58-.52-.17-1-.39-1.52-.65,1.43,5.16,4.12,11.29,3.04,16.02Z" style="fill: #0055a5;"/>
      <path id="ax" data-name="path116" d="m516.04,149.03v.61l-.05.13v.26l-.04.04v.17l-.05.05v.17l-.04.05v.13l-.05.05v.17l-.04.05c-.05.09-.09.3-.17.52,3.39,3.26,5.91,6.47,10.9,13.42,4.99,6.99,12.99,7.25,12.99,7.25-.78-5.65-2.35-10.12-6.6-14.9-4.22-4.82-9.68-9.21-13.64-12.12-1.04.48-2.39.78-4.08.57-.17,0-.26-.05-.39-.05.52.7.87,1.39,1.04,2.04,3,1.74,11.82,6.21,15.38,13.38,0,0-5.56-1.73-15.16-11.98Z" style="fill: #0055a5;"/>
      <path id="ay" data-name="path118" d="m522.34,142.04l-.35-.65c-.09-.17-.22-.35-.35-.52,3.26,1.26,14.9,5.65,18.68,7.6,3.78,1.96,9.21,6.39,12.16,15.42,0,0-7.86.7-14.33-4.69-6.47-5.34-14.03-12.86-17.29-15.24.35-.26.61-.56.78-.82,0,0,8.77,7.78,18.07,11.12,0,0-2-3.56-5.69-6.21-4.43-3.18-7.78-4.22-11.68-6Z" style="fill: #0055a5;"/>
      <path id="az" data-name="path120" d="m528.98,136.7l-.05-.09-.04-.13-.05-.13-.09-.09-.04-.13-.05-.13-.04-.09-.05-.13c3.82.82,13.47,1.95,17.76,3.26,4.26,1.3,12.03,4.47,16.64,13.25,0,0-6.78,2.08-19.55-3.91-12.73-5.99-16.72-7.26-19.15-7.91,1.95-.13,3.35-.78,4.04-1.22,5.08,2.26,11.86,4.95,18.64,5.13,0,0-3.35-2.35-6.86-3.82-3.78-1.62-7.95-3.05-11.12-3.87Z" style="fill: #0055a5;"/>
      <path id="ba" data-name="path122" d="m528.68,130.35l-.22.13-.22.09-.26.09-.22.13-.22.04-.22.09-.22.09-.22.05-.22.09-.26.05-.22.05-.26.05-.26.05-.13.05h-.31l-.13.05h-.13l-.17.05c.87.57,1.74,1.3,2.52,2.26,4.48,1.3,12.12,2.69,24.76,3.61,12.64.96,19.37-1.39,19.37-1.39-4.39-2.69-11.42-5.43-16.16-6.34-4.73-.91-17.2-.78-22.67-1.56-.09.09-.69.61-1.82,1.26,4.6.43,14.42.87,19.46,3.39,0-.01-9.3,1.24-21.59-2.32Z" style="fill: #0055a5;"/>
      <path id="bb" data-name="path124" d="m490.23,145.56l-.13-.17-.09-.05-.09-.09-.09-.09-.04-.04-.09-.09-.05-.05-.09-.09-.04-.09-.09-.05-.05-.09-.09-.05-.05-.09-.09-.05-.04-.09c-.69.87-2.87,3.61-3.95,6.34-.78,2.3-1.7,5.47-2.09,7.25-.48,1.87-1.74,5.6-2.52,6.9,0,0,3.43.48,5.99-2.56,2.52-2.91,3.43-5.86,3.78-8.9.31-2.38.22-5.68-.13-7.9Z" style="fill: #0055a5;"/>
      <path id="bc" data-name="path126" d="m495.71,146l-.04.09-.09.09-.05.05-.04.09-.09.09-.05.04-.04.04-.09.09-.05.04-.04.04-.05.05-.09.09-.04.04-.05.05h-.04l-.05.05-.04.04-.04.04-.05.05h-.05l-.04.05h-.04l-.05.04h0l-.04.04h-.05v.04h-.09v.05l-.43.22-.52-.13c-.39-.17-.78-.35-1.17-.48-.48,1.35-.69,2.04-.83,3.26-.17,1.56-.48,4.04.13,6.08.74,2.48,2.17,3.95,3,4.95,0,0,2.3-2.52,2.91-4.56.69-2.13.96-4.65.09-7.21-.43-1.39-1.17-2.65-1.82-3.39Z" style="fill: #0055a5;"/>
      <path id="bd" data-name="path128" d="m503.53,146.21l-.22-.05h-.22l-.22-.05-.22-.04-.39-.09-.39-.09-.39-.13-.35-.09-.35-.13-.35-.13-.35-.17-.3-.13-.3-.17-.31-.13-.26-.17-.31-.17-.26-.17-.22-.17c-.3.78-.78,1.91-.43,3.43.35,1.56,1.44,3.35,3,4.56,2.3,1.87,5.43,3.6,8.86,3.04,0,0,.82-2.56-6.04-8.95Z" style="fill: #0055a5;"/>
      <path id="be" data-name="path130" d="m506.13,141.91l-.04.22-.05.22-.04.17v.22l-.05.17-.04.17-.09.22-.05.17-.04.17-.05.13-.09.17-.04.17-.05.13-.09.13-.05.13-.09.13-.04.13-.05.13-.09.09-.04.09-.05.13-.04.09-.09.05-.05.09-.04.09-.05.04v.05l-.04.05-.05.05v.05h-.04v.05c.78.96,3.74,5.95,9.82,5.13,0,0,1.61-3.43-2.43-6.13-2.73-1.88-4.04-2.23-5.91-2.88Z" style="fill: #0055a5;"/>
      <path id="bf" data-name="path132" d="m505.57,137.61l.3.09.35.09.35.05.35.05.35.05.35.05h.39l.39.04h.39l.43-.04h.39l.43-.05.22-.05h.26l.22-.05.22-.05.22-.05.26-.05.22-.05.22-.09.69-.13.26-.7c3.08,2.56,6.82,3,8.08,5.3,0,0-1.56,2.87-5.61,2.35-4.04-.48-7.08-2.35-9.25-5.08-.08-.39-.26-1.13-.47-1.69Z" style="fill: #0055a5;"/>
      <path id="bg" data-name="path134" d="m512.61,134.05l-.05-.09-.04-.09-.13-.17-.09-.17-.09-.22-.13-.17-.09-.22-.13-.22-.13-.22-.09-.22-.13-.26-.09-.13-.09-.09-.05-.13-.09-.13-.09-.13-.09-.09-.09-.13-.09-.13-.13-.13-.09-.13-.13-.13-.09-.09c2.65-.48,5.08-.57,8.21.09,3.74.7,7.56,1.56,9.47,7.21,0,0-2.43,2.08-6.78,1.17-3.65-.74-6.9-2.35-8.73-4.99Z" style="fill: #0055a5;"/>
      <path id="bh" data-name="path136" d="m514.17,127.88l.17-.17.17-.13.17-.17.17-.17.17-.17.17-.22.13-.17.17-.17.13-.22.17-.22.13-.22.13-.22.13-.26.13-.22.13-.26.13-.26.3-.7c3.26-1.3,6.6-2,9.9-.78,3.3,1.26,4.17,2.69,4.99,3.91,0,0-3.65,3.08-7.82,3.21-4.21.09-8.12-1.12-9.81-2.38Z" style="fill: #0055a5;"/>
      <path id="bi" data-name="path138" d="m513.21,121.23l-.22-.09-.13-.05h-.09l-.13-.04-.09-.05-.13-.05-.13-.05h-.13l-.09-.05-.13-.05h-.13l-.13-.05-.13-.05h-.13l-.13-.05c1.48-1.26,2.82-3.17,3.52-6.08,1.56.35,5.04.35,6.6-.22,1.56-.61,4.6-.65,6.99.96,0,0-.78,4.13-6.21,5.56-5.04,1.36-6.95,1.01-9,.32Z" style="fill: #0055a5;"/>
      <path id="bj" data-name="path140" d="m515.13,113.11l-.69-.48c-.09-.04-1.3-.78-3.35-.91,1.74-1.34,5.87-4.82,8.77-6.43,3.21-1.78,8.51-4.21,11.21-4.56,0,0-2.52,6.64-5.47,9.34-3.04,2.78-5.17,3.83-10.47,3.04Z" style="fill: #0055a5;"/>
      <path id="bk" data-name="path142" d="m509.69,110.03l.26-.31.22-.35.22-.35.22-.35.22-.39.22-.39.22-.39.17-.43.17-.43.22-.43.17-.43.17-.48.13-.48.17-.48.13-.52.17-.48c.56-2.26,2-7.73,2.82-9.21.82-1.44,3.82-6.38,9.64-7.95,0,0,1.52,6.47-1.39,11.68-2.56,4.44-7.73,9.13-14.16,12.17Z" style="fill: #0055a5;"/>
      <path id="bl" data-name="path144" d="m477.38,140.35l-.17.13-.13.13-.13.13-.13.09-.13.13-.13.09-.13.13-.13.09-.17.09-.17.13-.05.05-.09.05-.09.05-.09.09-.13.05-.09.05-.09.04-.09.09-.13.05-.09.05-.13.09-.13.05s-1.82,3.56.39,7.82c2.26,4.3,4.17,8.69,5.08,11.12,0,0,1.22-.17,2.56-6.9.91-4.52,2.09-5.69,3.26-7.21-1.35.65-2.39.82-2.48.82l-.87.22-.43-.87c-.82-1.52-1.04-3-1.04-4.22,0-.43.05-.82.09-1.17-2.09.09-3.26-1-3.65-1.52q-.05-.09-.13-.13l-.17.24Z" style="fill: #0055a5;"/>
      <path id="bm" data-name="path146" d="m513.47,152.25l.43.43.43.43.48.48.48.52.52.52.48.56.57.61.52.61.57.65.52.65.57.7.56.7.52.74.52.78.57.78.48.78.52.83.48.82.48.83.43.87.39.87.39.91.35.87.3.96.3.91.22.91.22.96.17.96.09.96.04,1v.96l-.04,1s-8.47-2.65-11.94-8.86c-3.48-6.17-5.61-10.12-7.08-11.51.91.13,1.87.13,2.78,0l.78-.13c2.17,3.91,6.39,10.34,10.21,12.56,0,0,1-5.21-10.25-15.72-.17-.43-.39-.91-.74-1.44,1.04.39,2.21.56,3.56.52" style="fill: #0055a5;"/>
      <path id="bn" data-name="path148" d="m448.06,68.33v-.09l.04-.09.05-.05.04-.09.09-.05.09-.09.09-.05.13-.09.13-.05.13-.09.17-.05.17-.05.17-.09.22-.05.22-.04.22-.05.22-.05.22-.04.26-.05.26-.05.26-.05.3-.04.26-.05h.3l.31-.05.3-.05h.65l.3-.05h1c3.65,0,6.6.65,6.6,1.44,0,.74-2.95,1.39-6.6,1.39-3.64.02-6.59-.63-6.59-1.37Z" style="fill: #0055a5;"/>
      <path id="bo" data-name="path150" d="m425.6,75.93v-.05l.04-.05v-.04l.04-.05.05-.04.09-.05h.04l.09-.05.09-.05.09-.05h.09l.13-.05.13-.05.09-.05h.17l.13-.05h.13l.17-.04.17-.05h.13l.17-.05h.39l.17-.05h.39l.22-.05h1.08c2.3,0,4.26.35,4.26.78s-1.96.74-4.26.74c-2.38.02-4.29-.28-4.29-.72Z" style="fill: #0055a5;"/>
      <path id="bp" data-name="path152" d="m455.96,71.37v.31l-.04.05v.09l-.05.05v.09l-.05.05v.05l-.04.05-.04.09-.05.05-.04.05-.05.05-.04.05-.05.05-.04.05-.05.05-.04.05-.05.04h-.04l-.09.04-.05.05h-.04l-.09.05h-.13l-.04.04h-.22c-.69,0-1.3-.56-1.3-1.34,0-.65.61-1.26,1.3-1.26.74-.03,1.3.58,1.3,1.24Z" style="fill: #0055a5;"/>
      <path id="bq" data-name="path154" d="m447.58,66.94l-.22-.52-.17-.48-.22-.43-.17-.48-.17-.43-.17-.48-.22-.43-.13-.39-.17-.43-.17-.39-.13-.39-.17-.39-.13-.39-.13-.35-.13-.35-.13-.35-.13-.35-.09-.3-.09-.31-.13-.31-.09-.26-.09-.26-.04-.26-.09-.26-.05-.22-.04-.22-.05-.22-.04-.17-.04-.17v-.43c.04-.78.96-1.35,1.82-1.61.91-.26,1.65-.35,2.26.09,1.13.91,2.21,7.95,2.56,10.9-1.09.22-1.74.39-3.05,1.05Z" style="fill: #0055a5;"/>
      <path id="br" data-name="path156" d="m451.62,65.81l.09-.05h.3l.22-.05h.65l.43-.05c-.39-2.82-1.35-7.47-1.91-9.34-.57-1.87-1.3-3.17-2.52-3.52,0,0,.96,2.56,1.48,5.21.52,2.66.87,5.26,1.26,7.78Z" style="fill: #0055a5;"/>
      <path id="bs" data-name="path158" d="m444.62,75.19l.26-.05.22-.09.22-.09.22-.09.22-.09.26-.13.22-.09.22-.13.22-.13.17-.13.22-.13.22-.13.17-.13.22-.13.17-.13.17-.17.17-.13.13-.13.17-.13.13-.09.13-.13.13-.13.13-.09.13-.13.09-.09.09-.05.04-.09.09-.09h0l.04-.04h.05v-.05h0c-3.9.57-4.9,3.18-4.9,3.18Z" style="fill: #0055a5;"/>
      <path id="bt" data-name="path160" d="m448.27,74.97l-.35.17-.3.13-.31.17-.35.13-.31.13-.3.13-.35.09-.3.13-.31.09-.3.05-.3.09-.31.09-.26.05-.3.04-.26.05-.26.05h-.26l-.22.05h-.22l-.22.05h-1.39c.74-1.35,1.44-2.61,3.52-4.08,2.13-1.52,5.56-1.91,6.9-1.74-.31,1.03-1.7,3.2-3.26,4.16Z" style="fill: #0055a5;"/>
      <path id="bu" data-name="path164" d="m447.53,76.75c-2.52,1.17-10.34,1.3-14.55,1.52h-2.71l-.33-.11h-.43l-.33-.11h-.33l-.33-.11-.33-.11h-.33l-.33-.11h-.33l-.33-.11h-.22l-.33-.11-.22-.11h-.21l-.22-.11-.22-.11h-.33l-.11-.11h-.11l-.22-.11h-.11c.48,9.21,6.73,9.78,6.73,9.78-.09-.74,0-1.96,0-1.96,1.95,1.82,5.97,3.15,5.97,3.15-.05-1.13-.43-2.06-.43-2.06,1.7,1,2.71.98,2.71.98-.17-1.3-.98-2.82-.98-2.82,1.17,1.52,2.61,1.63,2.61,1.63.26-.74-.22-2.61-.22-2.61.61.74,1.74,2.69,5.21,3.48,3.56.74,5.1-1.3,5.1-1.3-3.39.22-6.62-3.04-6.62-3.04,1.82-.7,2.5-1.95,2.5-1.95-1.09-.91-2.17-.98-2.17-.98,1.99-.93,2.5-2.51,2.5-2.51Zm-11.95,3.48v.33s-5.43.02-5.65,2.71c-.87-.57-1.3-1.61-1.52-2.82,0,0,3.87.22,7.17-.22Z" style="fill: #0055a5;"/>
      <path id="bv" data-name="path166" d="m423.65,77.58l.04.39.05.35.04.39.05.35.04.39.09.35.09.35.09.35.09.35.09.35.09.3.13.31.09.31.13.31.13.26.13.26s-2.47-1.82-3.08-3.43c-.61-1.61-.79-2.66,1.73-1.92Z" style="fill: #0055a5;"/>
      <path id="bw" data-name="path170" d="m416.36,79.35c-1.07.12-2.06.56-2.71,1.52-1.26,1.87-.8,5.43,1.85,6.95,0,0,3.98-3.45,8.8-.11,0,0,1.06-.63,3.58-1.2v-.11h-.11v-.11l-.11-.11-.11-.11h-.11v-.11l-.11-.11-.11-.11-.11-.11-.11-.11-.11-.11h-.11l-.11-.22h-.11l-.11-.22h-.11l-.11-.11-.22-.11-.11-.11-.11-.11-.22-.11-.11-.11-.11-.11-.22-.11h-.12l-.22-.11-.11-.11c-1.48-.65-4.52-1.56-5.43-4.34-.7-.18-1.86-.35-2.94-.23Zm2.28,3.69c.57,0,1.09.52,1.09,1.09v.22h-.11v.22h-.11v.22h-.11v.11h-.11v.11h-.22v.11h-.23l-.11.11h-.11c-.56,0-.98-.52-.98-1.09,0-.56.41-1.08.98-1.08Z" style="fill: #0055a5;"/>
      <path id="bx" data-name="path172" d="m428.42,87.14h0l.04.05h0l.05.04v.05h.04l.05.09.04.05.09.09.05.13.09.09.09.09.09.13.09.13.13.09.09.13.13.13.09.17.13.13.26.26.22.26.26.31.13.13.13.13.13.13.13.13.13.09.13.13.13.09.13.13s-6.52-.09-8.12,5.56c0,0-2.22-3.48-.61-5.69,1.74-2.4,3.39-2.74,5.69-3.22Z" style="fill: #0055a5;"/>
      <path id="by" data-name="path174" d="m435.55,88.48h0l.05.05h.09l.04.05h.13l.09.05.09.05h.09l.13.04.09.05h.13l.09.05.13.05.22.04.22.09.26.04.09.05.13.05.09.05h.13l.09.05.09.05h.09l.09.05h.09l.09.05s0-1.22-.04-1.78c.65.13,1.39.35,2.09.43,0,0,2.09,4.6,3.74,6.47,0,0,.09,1.09-.82,2.61,0,0-1.22-2.69-3.3-4.95-1.18-1.23-1.96-1.89-4.43-3.62Z" style="fill: #0055a5;"/>
      <path id="bz" data-name="path176" d="m430.03,87.53h.05l.09.05h.13l.09.05.13.04.13.05.17.05.13.04.17.09.17.04.17.05.22.09.17.05.22.09.17.09.22.09.43.17.43.17.43.17.39.17.22.13.22.09.17.09.22.13.17.09.17.09.17.13.13.09c2.04,1.48,3.43,3.13,3.21,6.04,0,0-1.61-2.3-3.43-3.34-1.42-.79-4.03-3.05-5.38-5.04Z" style="fill: #0055a5;"/>
      <path id="ca" data-name="path178" d="m430.07,66.41h.13l.05.05h.22l.09.05h.13l.09.05h.09l.04.05h.09l.09.05.09.05.04.04.09.05.05.05.09.05.04.05.09.05.05.05.04.05.05.09.04.05.05.09.04.04v.09l.05.04v.14l.04.05v.14c0,1-1.56,3.39-2,4.43h0c-.43-1.04-1.95-3.43-1.95-4.43s1.17-1.3,1.78-1.3h.35v-.04Z" style="fill: #0055a5;"/>
      <path id="cb" data-name="path180" d="m428.73,74.19l-.04-.17-.05-.13v-.17l-.04-.17-.05-.17-.04-.17-.05-.22v-.17l-.04-.22-.05-.22-.09-.43-.13-.43-.09-.48-.09-.43-.09-.22-.05-.22-.04-.17-.09-.22-.04-.17-.09-.17-.05-.17-.09-.17-.09-.17-.04-.13-.09-.13-.09-.13-.09-.09-.05-.09c-.87-.74-2.09-.83-2.65-.78-.61.05-1.26.65-1,1.48s2.95,4.87,3.3,5.34c.6-.08.47-.08,2.04-.17Z" style="fill: #0055a5;"/>
      <path id="cc" data-name="path182" d="m431.07,74.19l.04-.17.05-.13v-.17l.04-.17.05-.17.04-.17.05-.22.04-.17.05-.22.04-.22.09-.43.09-.43.09-.48.13-.43.04-.22.05-.22.09-.17.04-.22.09-.17.04-.17.09-.17.05-.17.09-.17.04-.13.09-.13.09-.13.09-.09.05-.09c.87-.74,2.04-.83,2.65-.78s1.22.65,1,1.48c-.26.82-2.95,4.87-3.3,5.34-.6-.08-.51-.08-2.04-.17Z" style="fill: #0055a5;"/>
      <polygon id="cd" data-name="polygon184" points="432.81 61.55 430.72 61.55 430.72 59.25 429.03 59.25 429.03 61.55 426.95 61.55 426.95 63.03 429.03 63.03 429.03 65.72 430.72 65.72 430.72 63.03 432.81 63.03 432.81 61.55" style="fill: #0055a5;"/>
      <path id="ce" data-name="path186" d="m407.49,76.45v-.65l.04-.17v-.31l.04-.09v-.09c.13-1.13.17-2.13.05-2.91-1.52.57-2.56.96-4.6,4.3,0,0,3.3-2.04,4.48-.09Z" style="fill: #0055a5;"/>
      <path id="cf" data-name="path188" d="m410.35,81.79v-.09l.05-.13v-.31l.04-.13v-.13l.04-.17.05-.13v-.17l.05-.13.04-.17v-.17l.04-.17.05-.22.05-.17.09-.35.09-.39.13-.39.09-.39.13-.39.13-.39.13-.39.04-.17.09-.17c.87-2.26.3-5.56-.69-7.51-.96-1.95-1.52-3.78-1.35-5.78,0,0-1.95.65-3.08,1.35-.17,2.35,1.17,4.65,1.82,5.95.74,1.56.61,3.56.43,4.82-.26,2.13.17,4.39,1.56,6.52Z" style="fill: #0055a5;"/>
      <path id="cg" data-name="path190" d="m410.57,64.03v-.04h0v-.09h-.05v-.71l.05-.05v-.22l.04-.04v-.09h0l.04-.04s3.08-3,5.65-3.52c1.65-.35,2.65.39,3.17.78,0,0-.96-.09-2.3,1.04-1.39,1.09-3.08,2.48-4.43,2.83-1.25.33-1.56.24-2.16.15Z" style="fill: #0055a5;"/>
      <path id="ch" data-name="path192" d="m419.69,60.29l.22.22.22.22.22.22.17.22.22.22.17.22.04.09.09.13.09.09.09.13.05.13.09.09.05.13.09.09.04.09.05.13.04.09.05.13.04.09.05.13.04.09v.13l.05.09v.31c-.05,1.09-1.3,3.86-2,4.91-.65,1.04-1.61,2.43-1.52,4.08.05.87.65,1.74,1.35,2.43,0,0-3.78-.91-4.21-3.21-.43-2.08.43-3.56,1.04-4.73.56-1.09,2.35-3.61,2.73-4.65.43-.96.61-1.75.48-2.27Z" style="fill: #0055a5;"/>
      <path id="ci" data-name="path194" d="m441.76,86.53l.13.48.17.52.17.48.17.48.17.48.22.48.22.48.22.43.22.43.22.48.22.43.22.39.26.43.22.39.22.39.26.35c1.13,1.78,1.82,4.74,1.74,5.73,0,0,1.69-3.78.82-6.43-.65-2.09-2.52-5.13-5.86-6.43Z" style="fill: #0055a5;"/>
      <path id="cj" data-name="path196" d="m445.97,87.4h.35l.09.05h.48l.13.05h.26l.17.05h.13l.17.05h.13l.17.05.17.04.13.05.17.05h.13l.17.09.13.05.17.04.13.05.13.09.13.05.13.09.13.05c1.56,1.04,3.04,3.26,3.61,5.95,0,0-2.65-.43-3.91-1.74-1.3-1.28-2.87-3.23-3.52-5.06Z" style="fill: #0055a5;"/>
      <path id="ck" data-name="path198" d="m432.59,92.09h-.26l-.09.04h-.13l-.09.05h-.17l-.09.05-.17.04-.17.05h-.17l-.17.05-.17.05-.17.05-.09.05h-.09l-.09.05h-.09l-.04.05h-.17l-.04.05s2.21.65,3.3,1.52c.91.78,1.74,2,2.13,4,.57,2.82,2.22,5.86,2.69,6.78l.22-.04c-.35-1.96.87-5.95,1.22-6.52,0,0-1.78-1.13-2.56-2.26-.61-.84-1.62-2.23-4.52-4.01Z" style="fill: #0055a5;"/>
      <path id="cl" data-name="path200" d="m444.06,98.12l.09.13.05.13.09.17.09.17.09.13.04.17.09.22.13.17.09.17.09.22.17.39.17.39.05.22.09.22.09.26.04.22.09.22.05.22.04.26.05.22.04.26.05.26v.74l-.05.26v.22l-.04.26-.05.26-.09.26c-.78,2.73-2.52,3.91-3.65,6.21,0,0-.87-4.17-.69-7.38.22-3.27,1.39-4.49,2.82-5.66Z" style="fill: #0055a5;"/>
      <path id="cm" data-name="path202" d="m449.05,98.21h0v.05l.04.05v.05l.05.05v.04l.04.05.05.04v.09l.04.09.09.13.09.17.09.22.13.22.09.22.13.26.13.22.13.26.09.3.13.26.13.26.17.31.26.61.22.57.13.3.13.26.13.26.09.31.09.26.09.22.09.26.09.22.04.22.09.17c.43,1.96,0,3.21-.87,4.39-.87,1.17-2.35,2.48-3.74,4.91,0,0-1.56-2.08-1.78-3.17-.17-1.13.13-3.74.48-4.82s1.7-4.66,2.87-8.27Z" style="fill: #0055a5;"/>
      <path id="cn" data-name="path204" d="m450.36,114.15l-.04.05h-.05v.04l-.04.05-.05.05-.04.09-.13.09-.09.13-.13.13-.13.17-.13.13-.13.17-.13.17-.17.22-.17.17-.13.22-.17.17-.35.43-.3.39-.17.22-.13.22-.17.22-.13.17-.13.22-.13.17-.13.17-.13.17-.13.17-.09.17-.09.13-.05.13-.04.09-.05.05v.05l-.04.05c-.39,1.09-1.09,3.04-.17,4.43,1,1.39,3.08,3.61,4.95,4.56,0,0-2-3.17-1.82-5.78.13-1.69,1.43-3.17,1.69-4.17.21-1.01.04-2.74-.66-4.31Z" style="fill: #0055a5;"/>
      <path id="co" data-name="path206" d="m444.45,112.16l.04.05.05.09.04.05.05.09.09.09.04.09.05.09.04.09.05.13.09.09.04.13.05.09.04.13.04.09.13.26.09.26.09.26.09.26.09.26.09.26v.17l.04.13.05.13v.31l.04.13c.09,1.48-.13,2.69-.96,4.91-1,2.73-2.61,5.82-3.35,7.21,0,0-1.44-2.04-2.22-3.82,0,0,2.22-3.04,3.13-5.17,1.14-2.53,1.57-4.88,2-6.83Z" style="fill: #0055a5;"/>
      <path id="cp" data-name="path208" d="m443.45,110.94v.04h0l-.05.05v.26l-.04.17-.05.17-.04.26-.05.26-.09.31-.04.3-.09.35-.09.39-.13.39-.09.39-.13.43-.13.48-.17.43-.13.48-.17.52-.22.48-.17.52-.22.52-.22.52-.26.52-.26.52-.31.52-.26.52-.35.56-.31.52-.35.48-.35.52-.39.52c-2.82,3.56-5.13,4.82-6.64,4.82-2.3,0-4.6-1.96-5.39-4.13-.78-2.17-.52-5.6.96-6.78,0,0,1.39,4.26,4.3,4.43,3.34.18,7.6-3.56,11.9-10.77Z" style="fill: #0055a5;"/>
      <path id="cq" data-name="path210" d="m440.02,107.99l.04.13v.13l.05.13v.13l.09.26.04.31v.3l.05.31.04.31v1l-.04.35-.05.35v.35l-.09.35-.04.35-.09.35c-.35,1.39-1.22,3.21-2.82,4.26-1.44.87-4.74,1.09-6.04-2.08,0,0,6.08.47,8.86-7.26Z" style="fill: #0055a5;"/>
      <path id="cr" data-name="path212" d="m449.97,136.65l.09.17.09.22.13.22.09.22.13.22.13.22.17.22.13.22.31.43.3.43.35.43.3.43.31.43.17.17.13.22.13.22.13.22.13.17.13.22.09.17.09.22.09.17.09.17.05.17.05.17v.17l.04.13c-.09,4.43-2.04,7.12-2.47,8.6,0,0-3.52-2.82-4.13-6.04-.34-1.66,0-6.62,2.78-9.05Z" style="fill: #0055a5;"/>
      <path id="cs" data-name="path214" d="m446.01,139.78l.05-.13.04-.13.05-.13.09-.13.05-.17.09-.13.04-.17.09-.17.09-.17.09-.22.09-.17.09-.17.17-.39.22-.39.22-.43.22-.39.13-.17.09-.17.13-.17.13-.17.13-.17.13-.17.13-.17.13-.13.13-.13.13-.13.13-.13.13-.13s1.96-5.65-4.21-9.12c0,0-2.56,3.35-3.21,6.56-.7,3.17,2.69,5.08,4.26,7.95Z" style="fill: #0055a5;"/>
      <path id="ct" data-name="path216" d="m438.28,125.45l-.22.26-.22.22-.17.26-.22.26-.22.22-.22.26-.26.26-.22.22-.22.22-.22.26-.13.09-.13.09-.09.13-.13.09-.09.09-.13.09-.09.09-.13.05-.09.09-.13.09-.09.04-.13.05s-.39,2.52-.13,4.21c.31,2.48,1.91,5.04,2.61,6.95,0,0,2.69-3.56,3-5.65.31-2.08.26-3.78.35-4.78,0,0-1.48-2.44-2.3-4.13Z" style="fill: #0055a5;"/>
      <path id="cu" data-name="path218" d="m431.12,137.61l-.09-.13-.09-.13-.09-.17-.09-.13-.13-.22-.09-.17-.13-.22-.13-.22-.13-.26-.13-.22-.13-.26-.13-.31-.13-.26-.13-.31-.17-.26-.13-.3-.26-.61-.26-.65-.22-.65-.09-.3-.13-.31-.09-.35-.09-.31-.05-.3-.09-.35-.05-.31-.05-.3v-.31l-.04-.31s3.08,1.65,5.65.43c0,0,.31,4.08-.17,5.43-.39,1.14-.91,1.79-2.17,2.75Z" style="fill: #0055a5;"/>
      <path id="cv" data-name="path220" d="m431.81,138.48l.09-.05.05-.04.04-.09.09-.05.05-.05.09-.05.05-.09.09-.05.09-.09.04-.05.17-.17.13-.13.17-.17.17-.13.13-.17.17-.13.09-.09.04-.04.09-.09.09-.09.05-.05.04-.09.09-.05.05-.09.04-.05.05-.09s2.04,3.74,2.39,4.82c0,0-1,.22-2.13-.56-1.09-.77-1.39-.99-2.48-2.07Z" style="fill: #0055a5;"/>
      <path id="cw" data-name="path222" d="m441.24,136.26l-.04.05v.05l-.05.09v.05l-.04.09-.05.05-.04.09-.05.09-.09.17-.09.17-.13.22-.13.17-.13.22-.13.26-.17.22-.13.26-.17.22-.17.26-.35.48-.35.52-.17.22-.17.26-.13.22-.17.22-.17.22-.13.22-.13.17-.17.17-.09.17-.13.13-.05.05-.04.09-.05.05-.04.05-.05.05-.04.05-.05.05-.04.04s.26,1.65,1.48,4c1.22,2.39,2.91,4.04,3.82,4.87,0,0,2-3.52,2.61-5.04.69-1.78.61-3.56.3-4.22-.69-1.54-3.04-3.76-4.08-5.71Z" style="fill: #0055a5;"/>
      <path id="cx" data-name="path224" d="m446.15,148.17l.04.17.09.13.09.17.09.13.13.17.09.17.13.13.09.17.13.17.13.22.26.35.22.39.26.35.26.39.26.39.22.39.09.22.13.17.09.22.09.17.09.17.09.22.05.17.04.22.09.17v.17c.26,1.48.05,2.69-.35,3.74-.43,1-1.74,3-2.61,4.52,0,0-3-2.82-3.65-4.82-.48-1.52-.3-3.65.43-5.04.69-1.35,2.26-2.78,2.95-4.21Z" style="fill: #0055a5;"/>
      <path id="cy" data-name="path226" d="m437.67,147.77l.09.17.09.17.09.13.09.17.09.17.09.13.22.3.22.35.22.31.26.31.22.3.22.3.22.31.22.3.09.13.09.17.09.13.09.17.09.13.09.13.05.17.09.13.04.13.05.17c.48,1.7.65,2.82-.17,4.87-.78,1.78-1.65,2.82-1.96,3.91,0,0-2.43-3.13-2.87-4.43-.39-1.35-.52-3.48-.04-4.82.52-1.39,1.39-3.17,2-4.43Z" style="fill: #0055a5;"/>
      <path id="cz" data-name="path228" d="m449.62,159.76h0v.04h-.05v.04l-.04.05-.05.05-.04.04-.04.04-.05.09-.04.05-.09.09-.05.09-.09.09-.13.17-.13.22-.17.22-.17.22-.17.26-.17.26-.22.26-.17.31-.22.3-.17.3-.22.31-.17.3-.17.35-.17.3-.17.31-.17.35-.13.3-.13.3-.13.35-.09.31-.13.3-.04.26-.05.3-.04.13v.39c.13,3.35,2.35,5.52,2.65,7.6,0,0,2.22-2.47,3.04-4.12.91-1.91,1.65-3.48,1.39-5.6-.26-2.13-.83-3.48-3-5.6Z" style="fill: #0055a5;"/>
      <path id="da" data-name="path230" d="m441.93,159.24l.04.09.09.13.09.13.09.13.09.13.09.17.09.17.09.17.13.17.09.17.09.22.13.17.09.22.09.22.17.43.09.26.09.22.09.22.09.22.04.26.09.22.05.22.04.22.05.26.04.22v.82l-.04.22-.05.17c-.52,1.96-2.61,4.69-3.3,5.91,0,0-1.65-3.39-2-4.95-.34-1.56-.04-4.08,3.3-7.21Z" style="fill: #0055a5;"/>
      <path id="db" data-name="path232" d="m483.72,75.93v-.05l-.05-.05v-.04l-.04-.05-.05-.04-.04-.05h-.09l-.09-.05-.09-.05-.09-.05h-.09l-.13-.05-.09-.05-.13-.05h-.13l-.17-.05h-.13l-.17-.04-.13-.05h-.17l-.17-.05h-.35l-.22-.05h-.39l-.17-.05h-1.08c-2.35,0-4.26.35-4.26.78s1.91.74,4.26.74c2.34.02,4.25-.28,4.25-.72Z" style="fill: #0055a5;"/>
      <path id="dc" data-name="path234" d="m454.7,62.86l.04-.17.05-.22.05-.22.04-.22.09-.22.09-.22.09-.26.09-.26.09-.26.09-.26.22-.52.22-.56.22-.57.22-.52.22-.57.09-.26.13-.26.09-.26.05-.26.09-.22.09-.26.04-.22.04-.22.05-.22.04-.22v-.35c0-1.39-1.13-2.52-2.52-2.52s-2.52,1.13-2.52,2.52c0,1.78,2.21,5.86,2.47,7.77h.09Z" style="fill: #0055a5;"/>
      <path id="dd" data-name="path236" d="m461.74,66.94l.22-.52.22-.48.17-.43.22-.48.17-.43.17-.48.17-.43.17-.39.17-.43.13-.39.17-.39.13-.39.17-.39.13-.35.13-.35.13-.35.09-.35.13-.3.09-.31.09-.31.09-.26.09-.26.09-.26.04-.26.09-.22.05-.22.04-.22v-.17l.05-.17v-.43c0-.78-.96-1.35-1.78-1.61-.96-.26-1.7-.35-2.3.09-1.13.91-2.17,7.95-2.61,10.9,1.13.22,1.82.39,3.08,1.05Z" style="fill: #0055a5;"/>
      <path id="de" data-name="path238" d="m457.74,65.81l-.13-.05h-.3l-.22-.05h-.65l-.22-.05h-.17c.35-2.82,1.3-7.47,1.87-9.34.61-1.87,1.3-3.17,2.52-3.52,0,0-.91,2.56-1.43,5.21-.52,2.66-.92,5.26-1.26,7.78Z" style="fill: #0055a5;"/>
      <path id="df" data-name="path240" d="m459.79,72.02h.05v.05h.04v.04h.05l.04.09.09.09.09.05.09.09.13.13.09.09.13.13.13.13.17.09.13.13.17.13.17.13.17.17.17.13.22.13.17.13.22.13.17.13.22.13.22.13.22.13.22.09.22.13.22.09.26.09.22.09.22.09.22.05s-.99-2.61-4.9-3.18Z" style="fill: #0055a5;"/>
      <path id="dg" data-name="path242" d="m457.79,70.8h.26l.17-.05h.52l.17.05h.43l.22.05h.22l.22.05.22.05h.26l.22.05.26.04.22.09.26.05.26.05.22.09.26.09.26.05.22.09.26.09.26.09.22.13.22.09.26.13.22.13.22.09.17.17.22.13c2.13,1.48,2.83,2.73,3.56,4.08,0,0-3.82.3-7.17-1.65-1.61-.96-3-3.14-3.3-4.18Z" style="fill: #0055a5;"/>
      <path id="dh" data-name="path246" d="m461.86,76.75s.43,1.58,2.39,2.5c0,0-1.06.07-2.06.98,0,0,.65,1.26,2.39,1.95,0,0-3.19,3.26-6.62,3.04,0,0,1.58,2.04,5.1,1.3,3.52-.78,4.56-2.74,5.21-3.48,0,0-.43,1.87-.22,2.61,0,0,1.5-.11,2.71-1.63,0,0-.91,1.52-1.09,2.82,0,0,.98.02,2.71-.98,0,0-.39.93-.43,2.06,0,0,4.08-1.32,6.08-3.15v1.4l-.11.11v.43s6.26-.57,6.73-9.78c0,0-4.1,1.52-8.36,1.3-4.16-.2-11.96-.33-14.44-1.51Zm11.84,3.48c3.3.43,7.28.22,7.28.22v.22h-.11v.22l-.11.22v.22l-.11.11v.22l-.11.11v.22h-.11v.11l-.11.11v.11l-.11.11-.11.11v.11h-.11l-.11.11v.11h-.12l-.11.11v.11h-.11l-.11.11-.11.11c-.22-2.69-5.65-2.71-5.65-2.71v-.32h0Z" style="fill: #0055a5;"/>
      <path id="di" data-name="path248" d="m485.72,77.58l-.05.39-.04.35-.05.39-.04.35-.09.39-.05.35-.09.35-.09.35-.09.35-.09.35-.13.3-.09.31-.13.31-.09.31-.13.26-.13.26s2.47-1.82,3.08-3.43c.61-1.61.74-2.66-1.74-1.92Z" style="fill: #0055a5;"/>
      <path id="dj" data-name="path252" d="m490.96,79.35l-.22.11h-.22l-.22.11h-.22c-.91,2.78-4.02,3.69-5.54,4.34-1.61.78-3.15,2.61-3.15,2.61,2.52.57,3.69,1.2,3.69,1.2,4.82-3.34,8.8.11,8.8.11,2.61-1.52,3.15-5.08,1.85-6.95l-.22-.22-.11-.22-.11-.11-.22-.11-.11-.11-.22-.11-.11-.11-.22-.11-.22-.11-.11-.11h-.22l-.22-.11h-.22l-.11-.11h-2.4Zm-.33,3.68h.32v.11h.22v.11h.11l.11.11v.11h.11v.11h.11v.43l.11.11c0,.57-.52,1.09-1.09,1.09s-.98-.52-.98-1.09c.01-.56.42-1.08.99-1.08Z" style="fill: #0055a5;"/>
      <path id="dk" data-name="path254" d="m480.94,87.14h-.05v.05h-.04v.04l-.05.05h0l-.04.09-.09.05-.04.09-.09.13-.09.09-.05.09-.13.13-.09.13-.09.09-.13.13-.09.13-.13.17-.09.13-.26.26-.26.26-.22.31-.13.13-.13.13-.13.13-.13.13-.13.09-.13.13-.13.09-.13.13s6.47-.09,8.12,5.56c0,0,2.22-3.48.61-5.69-1.74-2.4-3.39-2.74-5.7-3.22Z" style="fill: #0055a5;"/>
      <path id="dl" data-name="path256" d="m473.81,88.48h-.04v.05h-.13v.05h-.17l-.04.05-.09.05h-.13l-.09.04-.09.05h-.13l-.09.05-.13.05-.22.04-.26.09-.22.04-.13.05-.09.05-.13.05h-.09l-.13.05-.09.05h-.09l-.09.05h-.09l-.05.05s-.04-1.22.05-1.78c-.65.13-1.44.35-2.13.43,0,0-2.04,4.6-3.69,6.47,0,0-.09,1.09.82,2.61,0,0,1.17-2.69,3.3-4.95,1.17-1.23,1.96-1.89,4.43-3.62Z" style="fill: #0055a5;"/>
      <path id="dm" data-name="path258" d="m479.33,87.53h-.09l-.09.05h-.09l-.13.05-.13.04-.13.05-.13.05-.17.04-.17.09-.17.04-.17.05-.17.09-.22.05-.17.09-.22.09-.22.09-.43.17-.43.17-.39.17-.43.17-.22.13-.17.09-.22.09-.17.13-.17.09-.17.09-.17.13-.13.09c-2.04,1.48-3.43,3.13-3.26,6.04,0,0,1.65-2.3,3.48-3.34,1.43-.79,4.04-3.05,5.39-5.04Z" style="fill: #0055a5;"/>
      <path id="dn" data-name="path260" d="m479.29,66.41h-.13l-.04.05h-.22l-.09.05h-.13l-.09.05h-.09l-.04.05h-.09l-.09.05-.09.05-.05.04-.09.05-.04.05-.09.05-.05.05-.09.05-.04.05-.05.05-.04.09-.05.05-.04.09-.05.04v.09l-.04.04v.14l-.05.05v.14c0,1,1.56,3.39,2,4.43h0c.43-1.04,1.95-3.43,1.95-4.43s-1.17-1.3-1.82-1.3h-.3v-.04Z" style="fill: #0055a5;"/>
      <path id="do" data-name="path262" d="m480.64,74.19l.04-.17v-.13l.04-.17.05-.17v-.17l.04-.17.05-.22.04-.17.05-.22.04-.22.09-.43.09-.43.09-.48.13-.43.04-.22.09-.22.05-.17.04-.22.09-.17.05-.17.09-.17.09-.17.05-.17.09-.13.09-.13.04-.13.09-.09.09-.09c.82-.74,2.04-.83,2.65-.78s1.22.65,1,1.48c-.26.82-2.95,4.87-3.3,5.34-.61-.08-.52-.08-2.04-.17Z" style="fill: #0055a5;"/>
      <path id="dp" data-name="path264" d="m478.24,74.19v-.17l-.04-.13-.05-.17-.04-.17v-.17l-.05-.17-.04-.22-.05-.17-.04-.22-.05-.22-.09-.43-.09-.43-.13-.48-.09-.43-.09-.22-.04-.22-.05-.17-.09-.22-.04-.17-.09-.17-.05-.17-.09-.17-.09-.17-.04-.13-.09-.13-.09-.13-.05-.09-.09-.09c-.82-.74-2-.83-2.65-.78-.56.05-1.22.65-.96,1.48.22.82,2.91,4.87,3.3,5.34.6-.08.48-.08,1.99-.17Z" style="fill: #0055a5;"/>
      <polygon id="dq" data-name="polygon266" points="476.55 61.55 478.59 61.55 478.59 59.25 480.33 59.25 480.33 61.55 482.41 61.55 482.41 63.03 480.33 63.03 480.33 65.72 478.59 65.72 478.59 63.03 476.55 63.03 476.55 61.55" style="fill: #0055a5;"/>
      <polygon id="dr" data-name="polygon268" points="451.4 47.87 453.53 47.87 453.53 45.57 455.18 45.57 455.18 47.87 457.31 47.87 457.31 49.35 455.18 49.35 455.18 52.04 453.53 52.04 453.53 49.35 451.4 49.35 451.4 47.87" style="fill: #0055a5;"/>
      <path id="ds" data-name="path270" d="m501.87,76.45v-.3l-.04-.17v-.52l-.05-.05v-.26c-.17-1.13-.22-2.13-.09-2.91,1.52.57,2.56.96,4.6,4.3,0,0-3.3-2.04-4.43-.09Z" style="fill: #0055a5;"/>
      <path id="dt" data-name="path272" d="m499.01,81.79l-.04-.09v-.31l-.04-.13v-.13l-.05-.13v-.17l-.04-.13v-.17l-.05-.13-.04-.17-.05-.17-.04-.17-.05-.22-.04-.17-.09-.35-.09-.39-.09-.39-.13-.39-.09-.39-.13-.39-.13-.39-.05-.17-.09-.17c-.82-2.26-.35-5.56.65-7.51,1-1.95,1.56-3.78,1.35-5.78,0,0,2,.65,3.08,1.35.17,2.35-1.17,4.65-1.78,5.95-.78,1.56-.65,3.56-.43,4.82.26,2.13-.18,4.39-1.57,6.52Z" style="fill: #0055a5;"/>
      <path id="du" data-name="path274" d="m498.79,64.03v-.04h0v-.09h0v-.75l-.04-.05v-.22l-.05-.05v-.05h0v-.04s-3.13-3-5.69-3.52c-1.61-.35-2.65.39-3.08.78,0,0,.87-.09,2.26,1.04,1.39,1.09,3.08,2.48,4.39,2.83,1.3.33,1.56.24,2.21.15Z" style="fill: #0055a5;"/>
      <path id="dv" data-name="path276" d="m489.63,60.29l-.22.22-.22.22-.17.22-.22.22-.17.22-.17.22-.09.09-.09.13-.09.09-.05.13-.09.13-.09.09-.05.13-.04.09-.09.09-.05.13-.04.09-.05.13-.04.09v.13l-.05.09-.04.13v.39c0,1.09,1.3,3.86,1.95,4.91.65,1.04,1.7,2.43,1.56,4.08-.09.87-.65,1.74-1.35,2.43,0,0,3.78-.91,4.21-3.21.43-2.08-.48-3.56-1.09-4.73-.56-1.09-2.3-3.61-2.73-4.65-.39-.96-.6-1.75-.47-2.27Z" style="fill: #0055a5;"/>
      <path id="dw" data-name="path278" d="m467.6,86.53l-.17.48-.17.52-.13.48-.22.48-.17.48-.17.48-.22.48-.22.43-.22.43-.22.48-.22.43-.26.39-.22.43-.22.39-.26.39-.22.35c-1.17,1.78-1.91,4.74-1.74,5.73,0,0-1.74-3.78-.87-6.43.69-2.09,2.52-5.13,5.9-6.43Z" style="fill: #0055a5;"/>
      <path id="dx" data-name="path280" d="m463.35,87.4h-.31l-.09.05h-.48l-.13.05h-.3l-.13.05h-.17l-.13.05h-.17l-.13.05-.17.04-.17.05-.13.05h-.17l-.17.09-.13.05-.13.04-.17.05-.13.09-.13.05-.13.09-.13.05c-1.52,1.04-3.04,3.26-3.56,5.95,0,0,2.61-.43,3.91-1.74,1.25-1.28,2.86-3.23,3.47-5.06Z" style="fill: #0055a5;"/>
      <path id="dy" data-name="path282" d="m476.77,92.09h.3l.05.04h.13l.09.05h.17l.09.05h.09l.09.04.17.05h.17l.17.05.17.05.17.05.09.05h.09l.09.05h.09l.05.05h.13l.09.05s-2.21.65-3.35,1.52c-.91.78-1.74,2-2.09,4-.56,2.82-2.21,5.86-2.73,6.78l-.17-.04c.3-1.96-.91-5.95-1.22-6.52,0,0,1.74-1.13,2.56-2.26.57-.84,1.61-2.23,4.52-4.01Z" style="fill: #0055a5;"/>
      <path id="dz" data-name="path284" d="m465.3,98.12l-.09.13-.04.13-.09.17-.09.17-.09.13-.09.17-.09.22-.09.17-.09.17-.09.22-.17.39-.17.39-.09.22-.09.22-.09.26-.04.22-.09.22-.05.22-.04.26-.05.22-.04.26-.05.26v1.22l.05.26.09.26.04.26c.82,2.73,2.61,3.91,3.74,6.21,0,0,.87-4.17.65-7.38-.17-3.27-1.34-4.49-2.78-5.66Z" style="fill: #0055a5;"/>
      <path id="ea" data-name="path286" d="m454.7,105.73v-.13l.04-.17.09-.17.04-.22.13-.17.09-.22.13-.22.13-.22.13-.26.13-.22.17-.26.17-.26.17-.26.13-.26.35-.52.35-.52.17-.26.17-.31.13-.26.17-.26.13-.26.13-.26.13-.26.09-.22.09-.26.09-.22.05-.26.04-.22v-.39c-.22-2.08-2.95-3.56-3.65-3.87h-.04c-.69.31-3.48,1.78-3.65,3.87s3.52,5.95,3.61,7.51h.09Z" style="fill: #0055a5;"/>
      <path id="eb" data-name="path288" d="m460.31,98.21h0l-.04.05v.09l-.05.05-.05.04v.05l-.04.04-.04.09-.05.09-.04.13-.09.17-.13.22-.09.22-.13.22-.09.26-.13.22-.13.26-.13.3-.13.26-.13.26-.13.31-.26.61-.26.57-.13.3-.09.26-.13.26-.09.31-.13.26-.09.22-.09.26-.04.22-.09.22-.05.17c-.43,1.96-.04,3.21.83,4.39.91,1.17,2.39,2.48,3.74,4.91,0,0,1.61-2.08,1.78-3.17.17-1.13-.09-3.74-.48-4.82-.31-1.1-1.66-4.66-2.83-8.27Z" style="fill: #0055a5;"/>
      <path id="ec" data-name="path290" d="m454.7,117.54l.22-.22.22-.22.22-.22.17-.22.22-.22.17-.22.22-.22.17-.26.13-.22.17-.22.05-.13.09-.09.09-.13.04-.09.04-.13.09-.09.04-.09.04-.13.05-.09.04-.09.05-.09.04-.09c.31-.91.39-2.22-.39-3.21-.91-1.17-2.09-2.52-2.17-3.6h-.09c-.04,1.09-1.22,2.43-2.17,3.6-.78,1-.69,2.3-.35,3.21.35.87,1.39,2.39,2.56,3.43h.05Z" style="fill: #0055a5;"/>
      <path id="ed" data-name="path292" d="m459,114.15l.04.05h0l.04.04.05.05.05.05.04.09.09.09.09.13.13.13.13.17.13.13.13.17.17.17.13.22.17.17.17.22.13.17.35.43.31.39.17.22.17.22.13.22.13.17.17.22.13.17.13.17.09.17.13.17.09.17.09.13.09.13.05.09v.05l.04.05v.05c.43,1.09,1.09,3.04.17,4.43-.91,1.39-3.08,3.61-4.95,4.56,0,0,2.04-3.17,1.82-5.78-.13-1.69-1.39-3.17-1.65-4.17-.26-1.01-.08-2.74.66-4.31Z" style="fill: #0055a5;"/>
      <path id="ee" data-name="path294" d="m464.87,112.16l-.04.05-.05.09-.04.05-.05.09-.04.09-.09.09-.05.09-.04.09-.04.13-.05.09-.09.13-.04.09-.05.13-.04.09-.13.26-.09.26-.09.26-.09.26-.09.26-.09.26-.04.17v.13l-.05.13v.13l-.04.17v.13c-.09,1.48.17,2.69,1,4.91,1,2.73,2.56,5.82,3.35,7.21,0,0,1.39-2.04,2.17-3.82,0,0-2.22-3.04-3.17-5.17-1.09-2.53-1.53-4.88-1.96-6.83Z" style="fill: #0055a5;"/>
      <path id="ef" data-name="path296" d="m465.91,110.94v.04h0v.05l.04.13v.13l.05.17.04.17.05.26.04.26.05.31.09.3.09.35.09.39.09.39.13.39.13.43.13.48.13.43.17.48.17.52.17.48.22.52.22.52.22.52.26.52.26.52.26.52.3.52.31.56.35.52.35.48.35.52.39.52c2.83,3.56,5.13,4.82,6.65,4.82,2.3,0,4.6-1.96,5.39-4.13.74-2.17.52-5.6-.96-6.78,0,0-1.39,4.26-4.34,4.43-3.29.18-7.6-3.56-11.85-10.77Z" style="fill: #0055a5;"/>
      <path id="eg" data-name="path298" d="m469.34,107.99l-.05.13-.04.13v.13l-.05.13-.04.13v.13l-.05.31-.04.3-.05.31v1.65l.05.35.04.35.05.35.09.35.09.35c.35,1.39,1.17,3.21,2.82,4.26,1.39.87,4.73,1.09,5.99-2.08,0-.01-6.08.47-8.82-7.26Z" style="fill: #0055a5;"/>
      <path id="eh" data-name="path300" d="m454.66,129.1l.17-.09.13-.09.17-.05.13-.09.17-.09.13-.09.09-.05.09-.09.09-.05.05-.05.09-.09.09-.05.09-.09.09-.05.09-.09.09-.09.04-.09.09-.09.09-.09.09-.13.09-.09.09-.13.09-.09.09-.13.09-.13.13-.17c.74-1.17,1.48-3.34,1.08-4.91-.52-1.91-1.61-2.69-2.21-3.91-.48.48-.78.82-1.44,1.22h-.04c-.61-.39-.96-.74-1.48-1.22-.65,1.22-1.65,2-2.17,3.91-.39,1.56.31,3.74,1.09,4.91.96,1.58,1.7,1.84,2.56,2.27Z" style="fill: #0055a5;"/>
      <path id="ei" data-name="path302" d="m454.66,141.04l.04-.17.09-.17.09-.22.09-.22.13-.22.13-.22.13-.22.17-.22.17-.26.17-.26.17-.22.17-.26.35-.52.39-.52.35-.52.17-.26.17-.26.17-.26.13-.22.13-.26.13-.26.13-.22.09-.26.09-.22.09-.22.05-.22v-.57c-.56-3-2.48-2.39-3.95-3.61h-.04c-1.48,1.22-3.43.61-3.95,3.61-.38,1.93,3.53,5.57,3.96,7.44Z" style="fill: #0055a5;"/>
      <path id="ej" data-name="path304" d="m459.35,136.65l-.04.17-.13.22-.09.22-.13.22-.13.22-.13.22-.13.22-.13.22-.3.43-.35.43-.3.43-.35.43-.3.43-.13.17-.17.22-.13.22-.13.22-.13.17-.09.22-.13.17-.09.22-.09.17-.05.17-.04.17-.05.17-.04.17v.13c.09,4.43,2,7.12,2.43,8.6,0,0,3.56-2.82,4.17-6.04.33-1.66-.06-6.62-2.84-9.05Z" style="fill: #0055a5;"/>
      <path id="ek" data-name="path306" d="m463.35,139.78l-.05-.13-.04-.13-.05-.13-.09-.13-.04-.17-.09-.13-.05-.17-.09-.17-.09-.17-.09-.22-.09-.17-.09-.17-.17-.39-.22-.39-.22-.43-.22-.39-.13-.17-.13-.17-.13-.17-.13-.17-.13-.17-.13-.17-.13-.17-.13-.13-.13-.13-.13-.13-.13-.13-.17-.13s-1.91-5.65,4.26-9.12c0,0,2.56,3.35,3.26,6.56.69,3.17-2.7,5.08-4.26,7.95Z" style="fill: #0055a5;"/>
      <path id="el" data-name="path308" d="m471.08,125.45l.17.26.22.22.22.26.22.26.22.22.22.26.22.26.22.22.26.22.22.26.09.09.13.09.13.13.09.09.13.09.09.09.13.09.09.05.13.09.09.09.13.04.09.05s.39,2.52.17,4.21c-.3,2.48-1.95,5.04-2.61,6.95,0,0-2.73-3.56-3-5.65-.35-2.08-.3-3.78-.39-4.78,0,0,1.52-2.44,2.35-4.13Z" style="fill: #0055a5;"/>
      <path id="em" data-name="path310" d="m478.2,137.61l.09-.13.09-.13.09-.17.13-.13.09-.22.13-.17.13-.22.09-.22.13-.26.13-.22.13-.26.17-.31.13-.26.13-.31.13-.26.13-.3.26-.61.26-.65.22-.65.13-.3.09-.31.09-.35.09-.31.09-.3.05-.35.04-.31.05-.3v-.61s-3.04,1.65-5.56.43c0,0-.35,4.08.13,5.43.39,1.14.96,1.79,2.18,2.75Z" style="fill: #0055a5;"/>
      <path id="en" data-name="path312" d="m477.51,138.48l-.05-.05-.04-.04-.09-.09-.04-.05-.09-.05-.05-.05-.09-.09-.04-.05-.09-.09-.09-.05-.05-.09-.09-.09-.17-.13-.17-.17-.13-.13-.17-.17-.13-.13-.09-.09-.09-.04-.05-.09-.09-.09-.09-.05-.04-.09-.05-.05-.09-.09-.04-.05-.05-.09s-2,3.74-2.35,4.82c0,0,1,.22,2.09-.56,1.13-.77,1.39-.99,2.47-2.07Z" style="fill: #0055a5;"/>
      <path id="eo" data-name="path314" d="m468.13,136.26l.05.05v.05l.04.09v.05l.05.09.04.05v.09l.05.09.09.17.13.17.09.22.13.17.13.22.17.26.13.22.17.26.17.22.13.26.35.48.35.52.17.22.17.26.17.22.13.22.17.22.13.22.17.17.13.17.13.17.09.13.04.05.09.09.05.05.04.05.04.05v.05l.05.05.04.04s-.26,1.65-1.43,4c-1.26,2.39-2.91,4.04-3.82,4.87,0,0-2-3.52-2.61-5.04-.69-1.78-.65-3.56-.31-4.22.65-1.54,3-3.76,4.09-5.71Z" style="fill: #0055a5;"/>
      <path id="ep" data-name="path316" d="m454.7,163.24l.04-.13.05-.13.05-.13.04-.13.09-.09.04-.13.09-.13.09-.13.09-.13.09-.13.13-.17.09-.13.22-.26.22-.31.22-.3.26-.3.22-.35.22-.35.13-.17.09-.17.13-.17.09-.17.09-.17.09-.22.09-.17.09-.22c.43-1.26.43-2.78-.09-3.82-.56-1.17-2.69-4.13-2.95-4.95h0c-.26.83-2.35,3.78-2.95,4.95-.52,1.04-.52,2.56-.05,3.82.78,2.17,2.65,3.65,2.95,4.91h.09Z" style="fill: #0055a5;"/>
      <path id="eq" data-name="path318" d="m463.17,148.17l-.05.17-.09.13-.09.17-.09.13-.09.17-.13.17-.09.13-.13.17-.13.17-.13.22-.22.35-.26.39-.26.35-.26.39-.22.39-.22.39-.13.22-.09.17-.09.22-.13.17-.04.17-.09.22-.09.17-.05.22-.04.17-.05.17c-.26,1.48,0,2.69.35,3.74.43,1,1.74,3,2.61,4.52,0,0,3-2.82,3.65-4.82.48-1.52.35-3.65-.39-5.04-.74-1.35-2.3-2.78-3-4.21Z" style="fill: #0055a5;"/>
      <path id="er" data-name="path320" d="m471.69,147.77l-.09.17-.09.17-.09.13-.09.17-.09.17-.09.13-.22.3-.22.35-.26.31-.22.31-.26.3-.22.3-.22.31-.22.3-.09.13-.09.17-.09.13-.09.17-.09.13-.09.13-.04.17-.05.13-.09.13-.04.17c-.48,1.7-.61,2.82.22,4.87.74,1.78,1.65,2.82,1.96,3.91,0,0,2.43-3.13,2.82-4.43.43-1.35.56-3.48.04-4.82-.48-1.39-1.35-3.17-1.96-4.43Z" style="fill: #0055a5;"/>
      <path id="es" data-name="path322" d="m454.66,187.34l.04-.17.04-.17.05-.17.09-.22.09-.22.09-.22.09-.26.13-.3.13-.26.13-.31.13-.3.13-.35.17-.35.13-.35.17-.35.13-.39.17-.35.17-.39.13-.43.13-.39.17-.43.13-.43.13-.43.13-.43.13-.43.09-.43.09-.48.09-.43.09-.48.05-.48.04-.43v-.48c.13-2.52-2.17-6.52-3.43-7.99h-.09c-1.26,1.48-3.48,5.47-3.43,7.99.18,4.99,3.35,9.76,3.48,11.33Z" style="fill: #0055a5;"/>
      <path id="et" data-name="path324" d="m459.74,159.76h0v.04h.04v.04l.05.05.04.05.05.04.04.04.05.09.04.05.09.09.04.09.05.09.17.17.13.22.17.22.17.22.17.26.17.26.22.26.17.31.17.3.22.3.17.31.22.3.17.35.17.3.17.31.13.35.17.3.13.3.13.35.09.31.09.3.09.26.04.3v.52c-.09,3.35-2.3,5.52-2.65,7.6,0,0-2.17-2.47-3-4.12-.96-1.91-1.7-3.48-1.39-5.6.22-2.13.79-3.48,3-5.6Z" style="fill: #0055a5;"/>
      <path id="eu" data-name="path326" d="m467.43,159.24l-.09.09-.05.13-.09.13-.09.13-.09.13-.09.17-.09.17-.13.17-.09.17-.09.17-.09.22-.13.17-.09.22-.09.22-.22.43-.09.26-.09.22-.09.22-.04.22-.09.26-.04.22-.09.22-.05.22-.04.26v.22l-.05.22v.39l.05.22v.22l.09.17c.48,1.96,2.56,4.69,3.26,5.91,0,0,1.65-3.39,2.04-4.95.35-1.56.04-4.08-3.3-7.21Z" style="fill: #0055a5;"/>
      <path id="ev" data-name="path328" d="m457.53,195.42l.05-.35.04-.35.05-.35.04-.35.09-.35.05-.31.09-.3.09-.31.13-.31.09-.3.09-.26.13-.3.13-.26.09-.26.26-.52.22-.48.26-.48.22-.43.22-.43.09-.22.09-.22.09-.22.09-.22.09-.17.04-.22.04-.17.05-.17c.43-2.26.3-4.39-1.48-7-1.39,4.82-2.95,8.34-4.13,10.77-.05.09-.09.13-.13.22,0-.09-.05-.13-.09-.22-1.22-2.43-2.78-5.95-4.17-10.77-1.74,2.61-1.91,4.73-1.48,7,.39,2,2.61,4.39,2.87,8.29.26,3.95-4.17,5.43-4.17,5.43,1.52.52,3.21.78,5.91-1.78.48-.48.87-.96,1.13-1.52.3.56.69,1.04,1.13,1.52,2.73,2.56,4.43,2.3,5.91,1.78,0,0-4.39-1.48-4.17-5.43Z" style="fill: #0055a5;"/>
      <path id="ew" data-name="path330" d="m443.58,169.32l.05.13.09.17.04.13.05.17.09.17.09.17.04.17.09.17.13.35.17.35.17.39.13.35.17.39.09.17.04.17.09.13.09.17.04.17.05.13.09.17.04.13.05.13.04.09.05.13.04.09v.13l.05.04c.35,1.56-.13,3.48-2.95,5.47,0,0-1.82-1.3-2.56-3-.69-1.56-.26-2.69.43-3.48.69-.87,2.39-2.74,3.04-4Z" style="fill: #0055a5;"/>
      <path id="ex" data-name="path332" d="m449.58,175.14v.31l-.04.17v.31l-.05.22v.17l-.04.22-.04.22-.05.26-.04.26-.05.26-.04.26-.05.26-.04.26-.13.56-.13.56-.17.61-.09.26-.05.26-.13.3-.09.26-.09.26-.09.26-.13.26-.09.22-.13.22-.09.22c-1.78,3.09-4.39,5.43-6.69,5.43-2.09,0-2.52-1.26-3.6-1.78,0,0,.52-2.69,2.91-3.39,2.91-.91,7.38-4.39,9.21-7.69Z" style="fill: #0055a5;"/>
      <path id="ey" data-name="path334" d="m441.98,180.79l-.09-.09-.09-.04-.17-.13-.09-.09-.09-.05-.13-.09-.09-.04-.09-.09-.09-.09-.04-.04-.05-.05-.04-.05-.05-.04-.09-.04-.05-.05-.04-.05-.05-.04-.04-.09-.09-.05-.05-.04-.04-.09s-2.22.82-4.13,2.08c-1.82,1.26-3.65,3.39-4.6,4.48,0,0,2.73.7,4.52-.09,0,0,.65-2.65,2.61-3.82.48-.26,1.83-.7,3.13-1.35Z" style="fill: #0055a5;"/>
      <path id="ez" data-name="path336" d="m439.63,178.53l-.05-.04-.04-.09-.05-.05-.04-.09-.05-.09-.04-.09-.05-.09-.04-.09-.05-.09-.09-.09-.04-.13-.05-.09-.04-.09-.05-.13-.04-.13-.05-.09-.09-.13-.04-.13v-.13l-.05-.13-.04-.13-.04-.13-.05-.17v-.13l-.04-.13v-.35l-.05-.13v-.35l.05-.17v-.17s-3.91,2.48-5.08,3.39c-1.17.96-3.6,3.48-4.17,4.3,0,0,2.95-.65,5.25-1.39,2.48-.83,4.17-1.96,5.08-2.48Z" style="fill: #0055a5;"/>
      <path id="fa" data-name="path338" d="m433.03,182.74l-.17.09-.22.04-.26.09-.22.09-.26.05-.26.09-.3.04-.26.09-.3.09-.31.05-.61.13-.61.17-.65.13-.61.13-.65.13-.61.13-.26.04-.3.09-.26.04-.3.09-.26.05-.22.04-.26.09-.22.05-.22.05-.17.09c-2,.61-3.43,1.56-5.3,3.65,0,0,2.87.78,4.43,1.3,0,0,2.47-1.7,5.17-2.69,1.77-.69,2.6-2.56,4.47-4.39Z" style="fill: #0055a5;"/>
      <path id="fb" data-name="path340" d="m428.64,196.69l.09-.09.09-.09.09-.13.09-.09.05-.05.04-.09.04-.05.05-.05v-.09l.04-.05.05-.09.04-.04v-.09l.05-.04v-.17l.04-.04v-.52l-.04-.09v-.09l-.05-.13v-.09l-.04-.13c-.31-.82-2.04-1.78-3.08-2.26-1.7-.82-6.38-2.08-7.91-2.56,0,0-.78.91-1.17,1.87-.22.39.04.74.69.82,1.35.26,4.48-.35,5.25.17.82.52.52,1.26.52,1.96,0,0,1.44-.87,2.35-.65,1.26.26,2.04.87,2.73,2.91Z" style="fill: #0055a5;"/>
      <path id="fc" data-name="path342" d="m424.47,190.17h.09l.04.05h.05l.09.04h.09l.09.04.09.05h.09l.09.05.13.04.09.04.13.05.13.05.13.04.13.09.13.05.13.04.17.09.13.05.17.09.13.09.17.05.17.09.13.09.17.09.17.09.17.09.13.09.17.13.17.09.17.09s.78-.3,1.17-1.04c.39-.7,2-3.09,3.48-3.39,0,0-1.26-.09-2-.35,0,0-1.48.39-2.61.87-1.08.39-2.43,1.08-3.99,2.13Z" style="fill: #0055a5;"/>
      <path id="fd" data-name="path344" d="m436.59,187.17h-.05l-.09.04h0l-.05.05h-.09l-.04.05h-.09l-.05.04h-.09l-.04.04h-.13l-.04.05h-.13l-.04.05h-.22l-.09.04h-.26l-.09.04h-.31s-4.12,2.87-4.6,5.69c-.43,2.47.87,3.65,1.48,3.95.65.35,3.52,1.48,5.39-2.35,0,0-3.17,1.04-4.08-.48-.82-1.56.56-3.82,1.44-4.43,1.17-.87,3.21-1.48,4.47-1.22,0,0-1.04-.96-2.21-1.57Z" style="fill: #0055a5;"/>
      <path id="fe" data-name="path346" d="m409.53,219.97l.17-.78.22-.78.22-.82.09-.39.13-.39.13-.39.13-.43.13-.39.13-.39.17-.39.13-.39.17-.39.17-.39c1.87-3.95,6.47-14.51,16.03-16.33.87-.22-1.04-2.43-1.91-2.3-.87.09-2.56,1.22-3.3,1.7,0,0,0-2.26-.05-2.65,0-.39-.35-.56-.74-.56-.35.04-2.69,0-3.39.87-2.22,2.52-5.87,9.3-7.95,14.33s-3.52,6.6-5.73,5.82c-2.17-.78-3.48-3.3-7.34-2.52-1.3.26-2.78,1.17-3.95,2.48.35.61.74,1.39,2.52,1.39s5.25.74,7.12,2.04c1.92,1.33,3.92,1.81,6.7,2.07Z" style="fill: #0055a5;"/>
      <path id="ff" data-name="path348" d="m447.66,187.3l.05.3.04.3.09.31.09.3.09.3.13.31.09.26.13.31.13.31.13.3.13.31.17.26.13.3.17.31.13.3.17.3s-2.87,13.42-13.42,14.42c0,0,.22-2.78,3.3-4.87,3.13-2.13,7.82-5.43,7.47-10.43,0,0-.87.17-2.35,2.04s-4.78,7.3-9.82,7.34c0,0,.74-2.56,3-4,2.22-1.48,5.08-3.34,6.39-5.6,1.3-2.21,2.65-3.26,3.56-3.69Z" style="fill: #0055a5;"/>
      <path id="fg" data-name="path350" d="m442.67,236.21l6.43,8.99,4.87-8.64-1.74-3.13c-1.26,2.3-2.65,4.74-3.39,6.13-.56-.87-2.17-3.13-4.3-6.13l-1.87,2.78Z" style="fill: #0055a5;"/>
      <polygon id="fh" data-name="polygon352" points="441.06 228.61 439.89 226.96 438.67 225.27 437.46 223.57 436.24 221.88 435.03 220.18 433.85 218.53 433.29 217.75 432.72 216.97 432.16 216.19 431.64 215.45 431.12 214.71 430.64 214.02 430.16 213.32 429.68 212.67 429.25 212.06 428.81 211.5 428.42 210.93 428.08 210.45 427.73 209.98 427.42 209.54 427.16 209.15 426.95 208.8 426.73 208.54 426.55 208.28 426.43 208.11 426.34 207.98 428.77 206.24 421.13 203.33 421.25 211.63 423.86 209.76 439.24 231.39 441.06 228.61" style="fill: #0055a5;"/>
      <path id="fi" data-name="path354" d="m388.42,179.57l.17-.17.22-.17.17-.13.22-.13.22-.09.22-.09.22-.05.22-.05.22-.04h.26l.22.04h.26l.26.09.26.04.26.09.26.09.26.13.31.13.26.13.31.13.26.17.31.17.3.22.26.17.31.22.3.22.3.26.31.22.3.26.26.26.3.26.3.26c3.21,2.95,5.25,5.99,3.39,8.08-1.74,1.87-5.13.26-8.3-2.69-3.25-2.95-5.25-5.99-3.38-8.03Z" style="fill: #0055a5;"/>
      <path id="fj" data-name="path356" d="m393.63,216.06l-.04-.04h0l-.04-.05-.05-.04h-.05v-.04h-.04v-.05h-.04v-.05h-.05c-1.7-1.52-2.69-3.82-2.69-6.34,0-4.87,3.95-8.82,8.77-8.82s8.82,3.95,8.82,8.82c0,.65-.13,1.7-.13,1.7.39-.74,1.87-4.08,2.13-4.69-1.3-4.73-5.65-8.21-10.82-8.21-4.43,0-8.21,2.56-10.08,6.3.7-4.43,2.91-8.43,4.47-9.9,1.87-1.78,5.08-2.35,5.08-2.35-2.13.31-4.82-.96-7.95-3.78-2.91-2.69-4.39-5.04-4.52-6.99.17,2.78.13,4.3-.65,6.6-1.09,3.04-4,8.69-2.95,15.07.56,3.52,3.08,8.73,7.38,12.99.87.96,1.22,2.39,1.35,3.13,0,0,6.26,0,7.78.13,0,0,1.48-.13,1.39-1.09,0-.91-.82-1.13-1.52-1.13-.79,0-3.91.04-5.56-1.17Z" style="fill: #0055a5;"/>
      <path id="fk" data-name="path358" d="m428.29,218.19l-.74.26-.78.26-.74.22-.74.22-.78.22-.74.22-.74.17-.74.17-.78.17-.74.13-.74.13-.74.13-1.44.26-1.48.22c-2.43.39-4.87.52-7.21.43.04.39.04.87-.17,1.26,0,0,.43.52.43,1.17,2.39.05,4.87-.05,7.34-.48,4.17-.65,8.56-1.48,12.94-3.13l-1.44-2.04Z" style="fill: #0055a5;"/>
      <path id="fl" data-name="path360" d="m434.89,217.88l1-.57,1-.61,1-.65,1-.7.96-.74,1-.78.96-.82,1-.87.96-.91.91-1,.96-1,.91-1.09.96-1.17.91-1.17.87-1.26.48-.65.43-.7.82-1.39c-1.26.56-2.91.17-2.91.17-.09.13-.3.48-.43.61-4.34,6.47-9.21,10.6-14.21,13.29l1.45,1.99Z" style="fill: #0055a5;"/>
      <path id="fm" data-name="path362" d="m399.62,220.14h-.43l-.13-.04h-1.43l-.3.04h-.35l-.31.05h-.35l-.3.05h-.3l-.17.04h-.13l-.13.04h-.13c-1.56.22-3.3.56-3.52,1.39-.13.82.39,1.69,1.17,2.91.52.74,1.65.35,2.26.09.65-.26,4.3-2.17,4.87-2.82.56-.61.78-1.52-.31-1.74Z" style="fill: #0055a5;"/>
      <path id="fn" data-name="path364" d="m403.32,222.57l-.05-.04-.05-.05h-.04l-.04-.04h-.05l-.05-.04-.04-.05h-.09l-.05-.05h-.09l-.05-.04h-.09l-.04-.04h-.17l-.04-.05h-.17l-.09-.05h-.61l-.09.05h-.09l-.09.05h-.09l-.09.04h-.09c-1,.39-4.56,2.52-4.82,3.48-.22,1,.26,1.52.82,1.74s1.22.43,1.74.48c.87.05,1.74-.48,2.22-1.04.43-.56,2.09-2.56,2.35-3.04.22-.39.39-1.09,0-1.3Z" style="fill: #0055a5;"/>
      <path id="fo" data-name="path366" d="m403.75,224.75l-.04.05-.04.09-.09.05-.04.09-.09.09-.09.09-.04.09-.09.09-.09.09-.09.13-.09.09-.09.09-.13.22-.17.22-.09.09-.09.13-.09.09-.09.09-.05.09-.09.09-.09.09-.05.09-.09.09-.05.09-.05.05-.04.09-.04.05v.05h-.05v.04h0l-.05.04h0c-.17.26.09.74.52.65.48-.05,2.91-.31,4.34-1.26,1.39-.96,2.35-2.78,1.39-3.48-1-.71-2.48-.36-4.13,1.42Z" style="fill: #0055a5;"/>
      <path id="fp" data-name="path368" d="m404.53,219.4h-.09l-.09-.04h-.13l-.09-.05h-.09l-.09-.04h-.17l-.13-.05h-.09l-.09-.04h-.35l-.09-.04h-.6l-.09.04h-.09l-.09.04h-.09v.05h-.09l-.05.04h0l-.04.05h-.04v.04h-.05v.04c-.52.78-.17,1.56,1.3,2.26,1.44.7,4.12,1.26,4.65.52.52-.74-.18-1.99-3.26-2.82Z" style="fill: #0055a5;"/>
      <path id="fq" data-name="path370" d="m465.73,169.32l-.05.13-.09.17-.04.13-.04.17-.09.17-.05.17-.09.17-.09.17-.13.35-.17.35-.13.39-.17.35-.17.39-.09.17-.05.17-.09.13-.09.17-.04.17-.09.13-.05.17-.04.13-.05.13-.04.09-.05.13-.04.09-.05.13v.04c-.3,1.56.13,3.48,2.95,5.47,0,0,1.87-1.3,2.56-3,.69-1.56.26-2.69-.39-3.48-.74-.87-2.39-2.74-3.08-4Z" style="fill: #0055a5;"/>
      <path id="fr" data-name="path372" d="m459.74,175.14l.04.09v.52l.05.17v.22l.04.17.05.22v.22l.04.26.05.26.04.26.05.26.09.26.05.26.13.56.13.56.13.61.09.26.09.26.09.3.09.26.13.26.09.26.09.26.13.22.13.22.09.22c1.78,3.09,4.34,5.43,6.69,5.43,2.09,0,2.56-1.26,3.56-1.78,0,0-.52-2.69-2.91-3.39-2.91-.91-7.38-4.39-9.21-7.69Z" style="fill: #0055a5;"/>
      <path id="fs" data-name="path374" d="m467.34,180.79l.13-.09.09-.04.17-.13.09-.09.09-.05.09-.09.09-.04.09-.09.09-.09.04-.04.05-.05.04-.05.09-.04.05-.04.04-.05.05-.05.04-.04.05-.09.09-.05.04-.04.04-.09s2.26.82,4.13,2.08c1.82,1.26,3.65,3.39,4.65,4.48,0,0-2.78.7-4.56-.09,0,0-.65-2.65-2.61-3.82-.43-.26-1.82-.7-3.12-1.35Z" style="fill: #0055a5;"/>
      <path id="ft" data-name="path376" d="m469.69,178.53l.04-.04.05-.09.04-.05.05-.09.04-.09.04-.09.05-.09.09-.09.04-.09.05-.09.04-.13.05-.09.09-.09.04-.13.05-.13.04-.09.05-.13.04-.13.05-.13.04-.13.05-.13.04-.13v-.17l.05-.13v-.13l.04-.17v-.31l.05-.17v-.17l-.05-.17v-.17s3.91,2.48,5.08,3.39c1.13.96,3.61,3.48,4.13,4.3,0,0-2.95-.65-5.21-1.39-2.47-.83-4.21-1.96-5.12-2.48Z" style="fill: #0055a5;"/>
      <path id="fu" data-name="path378" d="m476.29,182.74l.22.09.22.04.22.09.26.09.26.05.26.09.26.04.31.09.26.09.31.05.61.13.65.17.61.13.65.13.61.13.61.13.3.04.31.09.26.04.26.09.26.05.26.04.22.09.22.05.22.05.22.09c1.95.61,3.39,1.56,5.3,3.65,0,0-2.91.78-4.43,1.3,0,0-2.47-1.7-5.21-2.69-1.78-.69-2.61-2.56-4.48-4.39Z" style="fill: #0055a5;"/>
      <path id="fv" data-name="path380" d="m480.68,196.69l-.09-.09-.09-.09-.09-.13-.09-.09-.04-.05-.05-.09-.04-.05-.05-.05v-.09l-.04-.05-.05-.09-.04-.04v-.09l-.05-.04v-.17l-.04-.04v-.52l.04-.09v-.09l.05-.13.04-.09v-.13c.35-.82,2.04-1.78,3.08-2.26,1.74-.82,6.43-2.08,7.95-2.56,0,0,.74.91,1.17,1.87.13.39-.09.74-.74.82-1.3.26-4.48-.35-5.21.17-.82.52-.56,1.26-.56,1.96,0,0-1.44-.87-2.35-.65-1.26.26-2,.87-2.74,2.91Z" style="fill: #0055a5;"/>
      <path id="fw" data-name="path382" d="m484.89,190.17h-.08l-.05.05h-.09l-.04.04h-.09l-.09.04-.09.05h-.09l-.13.05-.09.04-.13.04-.09.05-.13.05-.13.04-.13.09-.17.05-.13.04-.13.09-.17.05-.13.09-.17.09-.13.05-.17.09-.17.09-.17.09-.13.09-.17.09-.17.09-.17.13-.17.09-.17.09s-.78-.3-1.17-1.04c-.39-.7-2-3.09-3.43-3.39,0,0,1.22-.09,1.95-.35,0,0,1.52.39,2.61.87,1.08.39,2.43,1.08,4.03,2.13Z" style="fill: #0055a5;"/>
      <path id="fx" data-name="path384" d="m472.77,187.17h.04l.05.04h.04l.05.05h.04l.05.05h.09l.04.04h.09l.04.04h.13l.04.05h.13l.09.05h.17l.09.04h.26l.09.04h.31s4.17,2.87,4.65,5.69c.39,2.47-.87,3.65-1.52,3.95-.61.35-3.48,1.48-5.39-2.35,0,0,3.17,1.04,4.08-.48.87-1.56-.52-3.82-1.44-4.43-1.13-.87-3.21-1.48-4.43-1.22,0,0,1-.96,2.22-1.57Z" style="fill: #0055a5;"/>
      <path id="fy" data-name="path386" d="m499.83,219.97l-.22-.78-.17-.78-.22-.82-.13-.39-.13-.39-.09-.39-.13-.43-.13-.39-.17-.39-.13-.39-.17-.39-.17-.39-.17-.39c-1.82-3.95-6.43-14.51-15.99-16.33-.91-.22,1-2.43,1.87-2.3.87.09,2.56,1.22,3.35,1.7v-2.65c.04-.39.39-.56.74-.56.39.04,2.69,0,3.43.87,2.17,2.52,5.87,9.3,7.91,14.33,2.13,5.04,3.56,6.6,5.73,5.82,2.17-.78,3.48-3.3,7.34-2.52,1.35.26,2.82,1.17,3.95,2.48-.31.61-.69,1.39-2.52,1.39s-5.21.74-7.12,2.04c-1.92,1.33-3.92,1.81-6.65,2.07Z" style="fill: #0055a5;"/>
      <path id="fz" data-name="path388" d="m461.7,187.3l-.09.3-.04.3-.09.31-.09.3-.09.3-.09.31-.13.26-.13.31-.09.31-.17.3-.13.31-.13.26-.17.3-.13.31-.35.61s2.91,13.42,13.47,14.42c0,0-.22-2.78-3.35-4.87-3.13-2.13-7.78-5.43-7.43-10.43,0,0,.78.17,2.3,2.04,1.48,1.87,4.78,7.3,9.86,7.34,0,0-.74-2.56-3-4-2.26-1.48-5.08-3.34-6.38-5.6-1.31-2.22-2.7-3.26-3.57-3.69Z" style="fill: #0055a5;"/>
      <path id="ga" data-name="path390" d="m454.7,200.33l.04.17.09.22.09.22.13.22.13.26.17.26.13.31.22.3.17.3.17.31.22.3.22.35.22.35.26.35.48.65.48.7.48.65.26.35.26.31.22.31.26.3.22.31.22.26.22.26.22.26.22.22.22.17.17.22.17.13c1.7,1.61,5.95,5.87,8.25,7.99,0,0-6.47-1.61-10.12-4.91,0,0-2.56,1.48-4.43,1.48h-.13c-1.87,0-4.47-1.48-4.47-1.48-3.61,3.3-10.08,4.91-10.08,4.91,2.26-2.13,6.52-6.39,8.25-7.99,1.74-1.56,5.73-7.21,6.34-8.99h.05Z" style="fill: #0055a5;"/>
      <path id="gb" data-name="path392" d="m454.7,215.23h.26l.13-.04h.39l.26-.05.26-.05.22-.09.26-.05.22-.09.26-.04.22-.09.17-.09.22-.04.09-.05.09-.05.09-.04.09-.04.09-.05h.09l.09-.05.09-.04c-.78,1.56-2.21,4.13-3.56,5.13h-.04c-1.39-1-2.83-3.56-3.61-5.13.78.35,2.13.91,3.56.91h.09Z" style="fill: #0055a5;"/>
      <path id="gc" data-name="path394" d="m460.22,245.2l25.28-35.45,2.56,1.87.17-8.3-7.65,2.91,2.39,1.74c-1.22,1.78-20.11,28.23-22.5,31.58l-11.42-20.76-1.44,2.13-10.16,15.42-2.56-1.7v8.17l7.73-3.04-2.61-1.78c1.44-2.08,6.9-10.43,8.77-13.2l11.43,20.42Z" style="fill: #0055a5;"/>
      <path id="gd" data-name="path396" d="m464.87,231.26l-.65-.96-.35-.48-.3-.48-.3-.43-.31-.48-.3-.43-.26-.43-.3-.43-.26-.39-.13-.17-.13-.22-.09-.17-.13-.17-.13-.17-.09-.17-.13-.17-.09-.13-.09-.17-.13-.13-.09-.13-.09-.13c-.61,1.17-1.91,3.52-3.35,6.08l-1.82-3.21,4.95-8.86,1.39,2.13,5.08,7.65-1.91,2.7Z" style="fill: #0055a5;"/>
      <path id="ge" data-name="path398" d="m470.08,233.56l1.78,2.78,2.56-1.7.04,8.17-7.73-3.04,2.56-1.78c-.26-.39-.65-1-1.17-1.78l1.96-2.65Z" style="fill: #0055a5;"/>
      <path id="gf" data-name="path400" d="m520.95,179.57l-.17-.17-.22-.17-.17-.13-.22-.13-.22-.09-.22-.09-.22-.05-.22-.05-.22-.04h-.26l-.22.04h-.26l-.26.09-.26.04-.26.09-.26.09-.31.13-.26.13-.26.13-.3.13-.26.17-.3.17-.31.22-.3.17-.26.22-.3.22-.31.26-.3.22-.3.26-.31.26-.3.26-.3.26c-3.26,2.95-5.25,5.99-3.35,8.08,1.74,1.87,5.04.26,8.29-2.69,3.21-2.95,5.25-5.99,3.38-8.03Z" style="fill: #0055a5;"/>
      <path id="gg" data-name="path402" d="m515.69,216.06l.04-.04h.05v-.05h.04v-.04h.05v-.04h.04l.05-.05h.04v-.05h.05c1.69-1.52,2.65-3.82,2.65-6.34,0-4.87-3.91-8.82-8.82-8.82s-8.77,3.95-8.77,8.82c0,.65.13,1.7.13,1.7-.35-.74-1.82-4.08-2.13-4.69,1.3-4.73,5.65-8.21,10.77-8.21,4.48,0,8.3,2.56,10.12,6.3-.69-4.43-2.91-8.43-4.47-9.9-1.87-1.78-5.04-2.35-5.04-2.35,2.09.31,4.82-.96,7.91-3.78,2.91-2.69,4.43-5.04,4.52-6.99-.17,2.78-.09,4.3.69,6.6,1.09,3.04,3.95,8.69,2.95,15.07-.56,3.52-3.13,8.73-7.38,12.99-.91.96-1.26,2.39-1.35,3.13,0,0-6.3,0-7.73.13,0,0-1.52-.13-1.48-1.09,0-.91.87-1.13,1.56-1.13.78,0,3.87.04,5.52-1.17Z" style="fill: #0055a5;"/>
      <path id="gh" data-name="path404" d="m474.42,217.88l-1-.57-1-.61-1-.65-.96-.7-1-.74-1-.78-.96-.82-.96-.87-.96-.91-.96-1-.96-1-.91-1.09-.91-1.17-.91-1.17-.91-1.26-.43-.65-.48-.7-.82-1.39c1.3.56,2.91.17,2.91.17.13.13.3.48.39.61,4.43,6.47,9.3,10.6,14.25,13.25l-1.45,2.04Z" style="fill: #0055a5;"/>
      <path id="gi" data-name="path406" d="m481.02,218.19l.74.26.78.26.74.22.78.22.74.22.74.22.78.17.74.17.74.17.74.13.74.13.74.13,1.48.26,1.43.22c2.48.39,4.91.52,7.21.43,0,.39,0,.87.17,1.26,0,0-.39.52-.39,1.17-2.39.05-4.87-.05-7.38-.48-4.17-.65-8.56-1.48-12.99-3.13l1.48-2.04Z" style="fill: #0055a5;"/>
      <path id="gj" data-name="path408" d="m509.69,220.14h.48l.13-.04h1.39l.35.04h.31l.35.05h.3l.35.05h.3l.13.04h.17l.13.04h.13c1.52.22,3.26.56,3.48,1.39.17.82-.39,1.69-1.17,2.91-.48.74-1.61.35-2.26.09-.65-.26-4.26-2.17-4.87-2.82-.56-.61-.78-1.52.31-1.74Z" style="fill: #0055a5;"/>
      <path id="gk" data-name="path410" d="m506.04,222.57l.05-.04v-.05h.04l.09-.04h.05l.04-.04.05-.05h.04l.09-.05h.05l.09-.04h.05l.09-.04h.13l.09-.05h.13l.09-.05h.61l.09.05h.09l.09.05h.09l.09.04h.09c1,.39,4.56,2.52,4.82,3.48.22,1-.26,1.52-.78,1.74-.61.22-1.26.43-1.78.48-.87.05-1.74-.48-2.17-1.04-.48-.56-2.13-2.56-2.35-3.04-.26-.39-.39-1.09,0-1.3Z" style="fill: #0055a5;"/>
      <path id="gl" data-name="path412" d="m505.57,224.75l.04.05.09.09.05.05.04.09.09.09.09.09.05.09.09.09.09.09.09.13.09.09.09.09.17.22.17.22.17.22.05.09.09.09.09.09.09.09.04.09.09.09.05.09.09.09.04.05.05.09.04.05.04.05v.04h0l.05.04h0c.13.26-.13.74-.56.65-.48-.05-2.91-.31-4.3-1.26-1.44-.96-2.35-2.78-1.39-3.48.96-.71,2.47-.36,4.08,1.42Z" style="fill: #0055a5;"/>
      <path id="gm" data-name="path414" d="m504.79,219.4h.13l.04-.04h.13l.09-.05h.09l.09-.04h.17l.13-.05h.09l.13-.04h.31l.09-.04h.6l.09.04h.09l.09.04h.09l.05.05h.09v.04h.04l.05.05h0l.04.04h0l.05.04c.48.78.13,1.56-1.3,2.26-1.44.7-4.17,1.26-4.69.52-.52-.74.22-1.99,3.26-2.82Z" style="fill: #0055a5;"/>
    </g>
  </g>
</svg>