<?xml version="1.0" encoding="UTF-8"?>
<svg id="a" data-name="Режим изоляции" xmlns="http://www.w3.org/2000/svg" viewBox="0 0 34.14 46.34">
  <g id="b" data-name="surface1">
    <path d="m5.98,45.77c-.39.36-.89.57-1.5.57-.73,0-1.3-.27-1.68-.79-.36-.5-.55-1.11-.55-1.86s.18-1.34.57-1.82c.41-.55.98-.82,1.7-.82.93,0,1.57.43,1.93,1.3l-.98.39c-.21-.43-.55-.66-.98-.66s-.73.18-.93.52c-.18.29-.27.66-.27,1.09s.09.82.27,1.11c.23.36.52.54.93.54.61,0,.95-.27,1-.79h-1.11v-.95h2.16v.68c0,.61-.2,1.11-.57,1.5Z" style="fill: #fff;"/>
    <path d="m11.7,46.25l-.91-1.84h-1.02v1.84h-1.02v-5.11h2.39c.52,0,.93.13,1.25.41.34.3.5.68.5,1.2,0,.75-.32,1.25-.98,1.52l.98,1.98h-1.18Zm-.59-4.11h-1.34v1.32h1.34c.48,0,.73-.23.73-.68,0-.43-.25-.64-.73-.64Z" style="fill: #fff;"/>
    <path d="m18.74,45.54c-.41.52-.98.79-1.7.79s-1.29-.27-1.7-.79c-.36-.48-.54-1.09-.54-1.84s.18-1.39.54-1.86c.41-.52.98-.8,1.73-.8s1.3.27,1.7.8c.34.48.55,1.09.55,1.84s-.2,1.36-.57,1.86Zm-.77-2.95c-.21-.34-.52-.52-.93-.52s-.73.18-.93.52c-.18.27-.27.66-.27,1.09s.09.82.27,1.11c.2.34.52.52.95.52s.73-.18.93-.52c.16-.27.25-.66.25-1.09,0-.46-.09-.82-.27-1.11Z" style="fill: #fff;"/>
    <path d="m24.94,45.66c-.36.45-.89.68-1.57.68s-1.21-.23-1.57-.68c-.34-.41-.5-.96-.5-1.66v-2.86h1.02v2.86c0,.36.07.66.23.91.18.27.46.43.82.43.34,0,.61-.16.79-.41.16-.25.25-.55.25-.93v-2.86h1.02v2.86c0,.7-.16,1.25-.5,1.66Z" style="fill: #fff;"/>
    <path d="m31.19,44.04c-.32.25-.77.39-1.34.39h-1.14v1.82h-1.02v-5.11h2.25c.52,0,.93.13,1.25.41.34.3.5.68.5,1.2,0,.57-.16,1-.5,1.3Zm-1.3-1.91h-1.18v1.32h1.2c.48,0,.73-.23.73-.68,0-.43-.25-.64-.75-.64Z" style="fill: #fff;"/>
    <path d="m29.01,0c-2.84,0-5.16,2.3-5.16,5.09v28.19c0,2.79,2.32,5.06,5.16,5.06s5.13-2.27,5.13-5.06V5.09c0-2.79-2.29-5.09-5.13-5.09Z" style="fill: #24a842;"/>
    <path d="m17.08,0c-2.84,0-5.16,2.3-5.16,5.09v28.19c0,2.79,2.32,5.06,5.16,5.06s5.13-2.27,5.13-5.06V5.09c0-2.79-2.29-5.09-5.13-5.09Z" style="fill: #f8af08;"/>
    <path d="m5.16,0C2.32,0,0,2.3,0,5.09v28.19c0,2.79,2.32,5.06,5.16,5.06s5.13-2.27,5.13-5.06V5.09C10.29,2.3,8,0,5.16,0Z" style="fill: #1a8ac1;"/>
    <path d="m6.86,34.23l-.52-1.48h-2.43l-.52,1.48h-1.43l2.55-6.63h1.29l2.52,6.63h-1.46Zm-1.41-3.93c-.16-.45-.27-.8-.34-1.04-.05.25-.16.59-.32,1.04l-.43,1.2h1.52l-.43-1.2Z" style="fill: #fefefe;"/>
    <path d="m14.95,34.23v-6.63h1.34v5.34h3.34v1.3h-4.68Z" style="fill: #fefefe;"/>
    <path d="m31.23,31.37c-.41.34-1,.52-1.73.52h-1.48v2.34h-1.32v-6.63h2.91c.68,0,1.23.18,1.63.55.43.36.66.88.66,1.57,0,.73-.23,1.27-.68,1.66Zm-1.66-2.48h-1.54v1.71h1.57c.64,0,.93-.3.93-.86s-.32-.84-.95-.84Z" style="fill: #fefefe;"/>
  </g>
</svg>